<svg xmlns="http://www.w3.org/2000/svg" width="40.416" height="40.416" viewBox="0 0 40.416 40.416">
  <g id="Group_212" data-name="Group 212" transform="translate(-6864.012 -243.215)">
    <g id="Group_209" data-name="Group 209">
      <path id="Path_173" data-name="Path 173" d="M6884.22,283.631a20.208,20.208,0,1,1,20.208-20.208A20.232,20.232,0,0,1,6884.22,283.631Zm0-38.658a18.45,18.45,0,1,0,18.451,18.45A18.471,18.471,0,0,0,6884.22,244.973Z" fill="#ea7536"/>
    </g>
    <g id="Group_210" data-name="Group 210">
      <path id="Path_174" data-name="Path 174" d="M6884.22,273.766a.608.608,0,0,1-.608-.608V253.689a.609.609,0,1,1,1.217,0v19.469A.608.608,0,0,1,6884.22,273.766Z" fill="#ea7536"/>
    </g>
    <g id="Group_211" data-name="Group 211">
      <path id="Path_175" data-name="Path 175" d="M6893.955,264.032h-19.469a.609.609,0,1,1,0-1.217h19.469a.609.609,0,0,1,0,1.217Z" fill="#ea7536"/>
    </g>
  </g>
</svg>
