<svg xmlns="http://www.w3.org/2000/svg" width="36.709" height="41.953" viewBox="0 0 36.709 41.953">
  <g id="Group_3" data-name="Group 3" transform="translate(-10758.153 -215.686)">
    <g id="Group_1" data-name="Group 1">
      <path id="Path_2" data-name="Path 2" d="M10792.24,250.647h-31.465a2.625,2.625,0,0,1-2.622-2.622V244.3a2.669,2.669,0,0,1,2.008-2.542c3.475-.995,4.218-5.483,4.988-14.781.449-5.459,3.672-11.291,11.358-11.291s10.906,5.832,11.358,11.291c.77,9.3,1.513,13.788,4.986,14.781a2.67,2.67,0,0,1,2.01,2.542v3.725A2.625,2.625,0,0,1,10792.24,250.647Zm-15.732-33.213c-8.181,0-9.43,7.414-9.618,9.686-.763,9.229-1.473,14.953-6.248,16.318a.943.943,0,0,0-.74.862v3.725a.875.875,0,0,0,.874.874h31.465a.876.876,0,0,0,.874-.874V244.3a.943.943,0,0,0-.743-.862c-4.773-1.365-5.483-7.089-6.246-16.318C10785.936,224.848,10784.686,217.434,10776.508,217.434Z" fill="#ea7536"/>
    </g>
    <g id="Group_2" data-name="Group 2">
      <path id="Path_3" data-name="Path 3" d="M10776.508,257.639a4.374,4.374,0,0,1-4.371-4.37v-3.5a.874.874,0,0,1,.874-.874H10780a.873.873,0,0,1,.874.874v3.5A4.374,4.374,0,0,1,10776.508,257.639Zm-2.623-6.992v2.622a2.623,2.623,0,0,0,5.245,0v-2.622Z" fill="#ea7536"/>
    </g>
  </g>
</svg>
