<svg xmlns="http://www.w3.org/2000/svg" width="491.092" height="528.779" viewBox="0 0 491.092 528.779">
  <path id="Path_176" data-name="Path 176" d="M6804.168,917.877c-33.028,118.729,77.319,179.882,165.469,162.5,88.866-17.519,99.834,37.384,220.037,41.85,121.713,4.522,91.749-192.592,91.749-192.592-10.68-40.6-20.981-101.878-8.3-173.32,9.134-51.465,22.491-64.8,12.743-86.655-21.923-49.16-103.149-12.37-267.611-58.62-43.037-12.1-87.1-28.577-129.351-7.087-4.785,2.434-24.46,12.939-45.99,45.246C6806.289,704.161,6849.655,754.359,6804.168,917.877Z" transform="translate(-6798.18 -593.529)" fill="#f4f7fa"/>
</svg>
