<svg xmlns="http://www.w3.org/2000/svg" width="320.838" height="366.7" viewBox="0 0 320.838 366.7">
  <g id="Group_278" data-name="Group 278" transform="translate(-6888.588 -677.263)">
    <circle id="Ellipse_4" data-name="Ellipse 4" cx="9.377" cy="9.377" r="9.377" transform="translate(7190.673 730.297)" fill="#fff" opacity="0.3"/>
    <path id="Path_184" data-name="Path 184" d="M7173.013,1004.34a6.594,6.594,0,0,1-6.548,6.634H6976.6a6.591,6.591,0,0,1-6.548-6.634V683.894a6.589,6.589,0,0,1,6.548-6.631h189.863a6.592,6.592,0,0,1,6.548,6.631Z" fill="#2e3054"/>
    <path id="Path_185" data-name="Path 185" d="M7166.465,677.263H6976.6a6.589,6.589,0,0,0-6.548,6.631V942.041S7170.078,677.263,7166.465,677.263Z" fill="#fff" opacity="0.2"/>
    <path id="Path_186" data-name="Path 186" d="M7161.01,958.092c0,2.743-2.583,4.966-5.774,4.966H6987.83c-3.191,0-5.773-2.223-5.773-4.966V717.867c0-2.744,2.582-4.969,5.773-4.969h167.406c3.191,0,5.774,2.225,5.774,4.969Z" fill="#fff"/>
    <rect id="Rectangle_13" data-name="Rectangle 13" width="117.662" height="91.44" transform="translate(7013.247 861.264)" fill="#cbcfff" opacity="0.6"/>
    <g id="Group_243" data-name="Group 243">
      <g id="Group_242" data-name="Group 242">
        <g id="Group_237" data-name="Group 237">
          <g id="Group_222" data-name="Group 222">
            <path id="Path_187" data-name="Path 187" d="M7080.207,938.544h-24.948c-2.555,0-4.636-2.391-4.636-5.328s2.081-5.328,4.636-5.328h24.948a1.1,1.1,0,0,1,0,2.2h-24.948c-1.341,0-2.432,1.4-2.432,3.124s1.091,3.124,2.432,3.124h24.948a1.1,1.1,0,0,1,0,2.2Z" fill="#2a2b7c"/>
          </g>
          <g id="Group_223" data-name="Group 223">
            <path id="Path_188" data-name="Path 188" d="M7053.6,929.594a1.1,1.1,0,0,1-1.034-.722c-2.33-6.335-9.009-23.426-11.9-26.4a4.5,4.5,0,0,0-3.03-1.664,2.247,2.247,0,0,0-1.524.619,1.107,1.107,0,0,1-1.551.058,1.093,1.093,0,0,1-.081-1.537,4.4,4.4,0,0,1,3.077-1.34,6.436,6.436,0,0,1,4.69,2.328c3.8,3.911,12.035,26.224,12.384,27.172a1.1,1.1,0,0,1-1.033,1.482Z" fill="#2a2b7c"/>
          </g>
          <g id="Group_224" data-name="Group 224">
            <path id="Path_189" data-name="Path 189" d="M7057.324,947.219a5.452,5.452,0,1,1,5.452-5.452A5.459,5.459,0,0,1,7057.324,947.219Zm0-8.7a3.249,3.249,0,1,0,3.25,3.25A3.252,3.252,0,0,0,7057.324,938.517Z" fill="#2a2b7c"/>
          </g>
          <g id="Group_225" data-name="Group 225">
            <path id="Path_190" data-name="Path 190" d="M7080.164,947.219a5.452,5.452,0,1,1,5.452-5.452A5.457,5.457,0,0,1,7080.164,947.219Zm0-8.7a3.249,3.249,0,1,0,3.248,3.25A3.252,3.252,0,0,0,7080.164,938.517Z" fill="#2a2b7c"/>
          </g>
          <g id="Group_226" data-name="Group 226">
            <path id="Path_191" data-name="Path 191" d="M7086.237,910.7h-39.709a1.1,1.1,0,1,1,0-2.2h39.709a1.1,1.1,0,1,1,0,2.2Z" fill="#2a2b7c"/>
          </g>
          <g id="Group_227" data-name="Group 227">
            <path id="Path_192" data-name="Path 192" d="M7080.207,930.092a1.12,1.12,0,0,1-.326-.05,1.1,1.1,0,0,1-.726-1.379l6.03-19.391a1.1,1.1,0,1,1,2.1.653l-6.027,19.392A1.109,1.109,0,0,1,7080.207,930.092Z" fill="#2a2b7c"/>
          </g>
          <g id="Group_232" data-name="Group 232">
            <g id="Group_228" data-name="Group 228">
              <path id="Path_193" data-name="Path 193" d="M7054.567,929.727a1.1,1.1,0,0,1-1.1-1.1V909.759a1.1,1.1,0,0,1,2.2,0v18.866A1.1,1.1,0,0,1,7054.567,929.727Z" fill="#2a2b7c"/>
            </g>
            <g id="Group_229" data-name="Group 229">
              <path id="Path_194" data-name="Path 194" d="M7063.059,929.727a1.1,1.1,0,0,1-1.1-1.1V909.759a1.1,1.1,0,0,1,2.2,0v18.866A1.1,1.1,0,0,1,7063.059,929.727Z" fill="#2a2b7c"/>
            </g>
            <g id="Group_230" data-name="Group 230">
              <path id="Path_195" data-name="Path 195" d="M7071.551,929.727a1.1,1.1,0,0,1-1.1-1.1V909.759a1.1,1.1,0,1,1,2.2,0v18.866A1.1,1.1,0,0,1,7071.551,929.727Z" fill="#2a2b7c"/>
            </g>
            <g id="Group_231" data-name="Group 231">
              <path id="Path_196" data-name="Path 196" d="M7080.041,929.727a1.1,1.1,0,0,1-1.1-1.1V909.759a1.1,1.1,0,0,1,2.205,0v18.866A1.1,1.1,0,0,1,7080.041,929.727Z" fill="#2a2b7c"/>
            </g>
          </g>
          <g id="Group_235" data-name="Group 235">
            <g id="Group_233" data-name="Group 233">
              <path id="Path_197" data-name="Path 197" d="M7083.869,916.925h-34.707a1.1,1.1,0,1,1,0-2.2h34.707a1.1,1.1,0,1,1,0,2.2Z" fill="#2a2b7c"/>
            </g>
            <g id="Group_234" data-name="Group 234">
              <path id="Path_198" data-name="Path 198" d="M7081.5,923.394h-29.525a1.1,1.1,0,1,1,0-2.2H7081.5a1.1,1.1,0,0,1,0,2.2Z" fill="#2a2b7c"/>
            </g>
          </g>
          <g id="Group_236" data-name="Group 236">
            <path id="Path_199" data-name="Path 199" d="M7036.479,907.365a3.931,3.931,0,1,1,3.932-3.931A3.935,3.935,0,0,1,7036.479,907.365Zm0-5.66a1.728,1.728,0,1,0,1.728,1.729A1.731,1.731,0,0,0,7036.479,901.705Z" fill="#2a2b7c"/>
          </g>
        </g>
        <g id="Group_238" data-name="Group 238">
          <path id="Path_200" data-name="Path 200" d="M7081.352,906.882a1.1,1.1,0,0,1-1.058-1.411l2.893-9.879a13.8,13.8,0,0,1,9.665-23.643,14.141,14.141,0,0,1,1.468.077,13.805,13.805,0,0,1-1.436,27.534,14.156,14.156,0,0,1-1.471-.078l-.2-.021-9.186,7.187A1.109,1.109,0,0,1,7081.352,906.882Zm11.5-32.729a11.6,11.6,0,0,0-7.686,20.276,1.1,1.1,0,0,1,.325,1.131l-2.12,7.242,6.858-5.364a1.092,1.092,0,0,1,.847-.221c.189.029.377.054.569.074a11.6,11.6,0,1,0,1.207-23.138Z" fill="#2a2b7c"/>
        </g>
        <g id="Group_241" data-name="Group 241">
          <g id="Group_239" data-name="Group 239">
            <path id="Path_201" data-name="Path 201" d="M7092.194,878.694l.026,13.239h2.087V878.694Z" fill="#2a2b7c"/>
          </g>
          <g id="Group_240" data-name="Group 240">
            <path id="Path_202" data-name="Path 202" d="M7099.87,884.258l-13.237.026v2.087h13.237Z" fill="#2a2b7c"/>
          </g>
        </g>
      </g>
    </g>
    <path id="Path_203" data-name="Path 203" d="M6961.1,1032.418h-72.509l.983-101.088,74.479-1.273Z" fill="#d55765"/>
    <path id="Path_204" data-name="Path 204" d="M6964.05,930.057l7.654,94.966-10.607,7.4Z" fill="#2e3054"/>
    <path id="Path_205" data-name="Path 205" d="M6944.4,938.306a1.928,1.928,0,1,1-1.9-1.605A1.772,1.772,0,0,1,6944.4,938.306Z" fill="#fff"/>
    <path id="Path_206" data-name="Path 206" d="M6909.621,938.145a1.928,1.928,0,1,1-1.9-1.6A1.771,1.771,0,0,1,6909.621,938.145Z" fill="#fff"/>
    <path id="Path_207" data-name="Path 207" d="M6943.061,937.961c-.047-3.576-1.034-24.364-17.607-24.79a14.91,14.91,0,0,0-10.045,3.236c-8.257,6.685-8.535,21.219-8.543,21.834a.534.534,0,0,0,.486.309.443.443,0,0,0,.443-.3c.014-.146.295-14.819,8.266-21.269a13.8,13.8,0,0,1,9.365-3.017c15.575.4,16.634,20.166,16.692,23.9a3.087,3.087,0,0,0,.064.605.431.431,0,0,0,.452.351.425.425,0,0,0,.455-.386C6943.089,938.39,6943.062,938.107,6943.061,937.961Z" fill="#0b1238"/>
    <g id="Group_247" data-name="Group 247">
      <path id="Path_208" data-name="Path 208" d="M7020.331,1036.693h-66.764l.907-96.866,68.577-1.219Z" fill="#ffdcd8"/>
      <path id="Path_209" data-name="Path 209" d="M7022.447,960.307l-5.9-7.647-6.142-.8,5.149,28.354.566.024,5.907-4.56Z" fill="#c3cfce" style="mix-blend-mode: multiply;isolation: isolate"/>
      <path id="Path_210" data-name="Path 210" d="M7023.05,938.608l7.049,91-9.769,7.085Z" fill="#2e3054"/>
      <path id="Path_211" data-name="Path 211" d="M7002.148,951.773a1.6,1.6,0,1,1-1.6-1.6A1.6,1.6,0,0,1,7002.148,951.773Z" fill="#f9e0e9"/>
      <path id="Path_212" data-name="Path 212" d="M6970.67,951.613a1.6,1.6,0,1,1-1.6-1.6A1.6,1.6,0,0,1,6970.67,951.613Z" fill="#f9e0e9"/>
      <g id="Group_244" data-name="Group 244">
        <path id="Path_213" data-name="Path 213" d="M7007.464,955.454a1.053,1.053,0,1,0,1.474.19A1.053,1.053,0,0,0,7007.464,955.454Zm1.046,1.721a.725.725,0,1,1,.13-1.016A.725.725,0,0,1,7008.51,957.175Z" fill="#c3cfce" style="mix-blend-mode: multiply;isolation: isolate"/>
        <path id="Path_214" data-name="Path 214" d="M7009.681,951.711l-6.357,4.911-.708,5.886,12.7,16.45,12.943-9.994-12.7-16.45Zm-1.1,5.146a.725.725,0,1,1,.131-1.017A.725.725,0,0,1,7008.58,956.857Z" fill="#fff"/>
        <path id="Path_215" data-name="Path 215" d="M7007.224,955.1a1.493,1.493,0,1,0,2.094.268A1.492,1.492,0,0,0,7007.224,955.1Zm1.356,1.755a.725.725,0,1,1,.131-1.017A.725.725,0,0,1,7008.58,956.857Z" fill="#3d3942"/>
      </g>
      <path id="Path_216" data-name="Path 216" d="M7000.085,945.089l-.266-.168-.173.261c-.8,1.2.612,4.13,1.258,5.333a22.333,22.333,0,0,0,3.709,5.111l.522-.4a20.415,20.415,0,0,1-3.666-5.011c-1.035-1.928-1.552-3.565-1.405-4.366,1.672,1.122,9.167,6.4,7.779,9.865a1.071,1.071,0,0,1-.42.562.729.729,0,0,0,.075.317c.007.078.021.154.021.234,0,.037-.008.071-.01.107a1.537,1.537,0,0,0,.93-.982C7010.187,951.582,7000.5,945.352,7000.085,945.089Z" fill="#2e3054"/>
      <g id="Group_245" data-name="Group 245">
        <path id="Path_217" data-name="Path 217" d="M7001.1,952.18l-.794-.015c0-.014.01-.59-.011-1.576-.016-.655-.043-1.491-.1-2.462-.454-8.069-2.809-26.881-14.851-27.322a9.941,9.941,0,0,0-7.471,2.909c-8.035,7.676-8.309,27.967-8.311,28.172l-.793-.008c.007-.846.28-20.83,8.556-28.738a10.743,10.743,0,0,1,8.048-3.127c12.693.465,15.148,19.785,15.613,28.069.054.981.084,1.827.1,2.488C7001.113,951.577,7001.1,952.165,7001.1,952.18Z" fill="#0b1238"/>
      </g>
      <g id="Group_246" data-name="Group 246">
        <path id="Path_218" data-name="Path 218" d="M7014.849,958.9c.806-.711,1.72-.578,2.583.4s.882,1.9.077,2.613l-2.572,2.269c-.807.711-1.719.58-2.585-.4s-.883-1.9-.075-2.612Zm-1.752,3.314a.685.685,0,0,0,.9,1.027l2.686-2.37a.6.6,0,0,0,.041-.946.59.59,0,0,0-.945-.078Zm7.742,1.064.816.925-11.295,2.982-.816-.925Zm-4.5,3.083c.806-.709,1.717-.578,2.583.4s.881,1.9.077,2.613l-2.574,2.271c-.8.709-1.717.579-2.583-.4s-.882-1.9-.076-2.614Zm-1.751,3.316a.588.588,0,0,0-.041.946.6.6,0,0,0,.944.078l2.684-2.369a.683.683,0,0,0-.9-1.023Z" fill="#2e3054"/>
      </g>
      <path id="Path_219" data-name="Path 219" d="M7001.469,950.211a11.31,11.31,0,0,1-1.3-3.222c-.217.031-.19.92-.359,1.063.325.878.881,2.214,1.158,2.73.072.133.151.272.23.412a1.336,1.336,0,0,0,.486-.447C7001.636,950.657,7001.518,950.3,7001.469,950.211Z" fill="#2e3054"/>
      <path id="Path_220" data-name="Path 220" d="M6969.546,951.827a.4.4,0,1,1-.4-.4A.4.4,0,0,1,6969.546,951.827Z" fill="#0b1238"/>
      <path id="Path_221" data-name="Path 221" d="M7001.116,952.095a.4.4,0,1,1-.4-.4A.4.4,0,0,1,7001.116,952.095Z" fill="#0b1238"/>
    </g>
    <path id="Path_222" data-name="Path 222" d="M7020.517,1036.089l3.879-7.759,5.189,1.281Z" fill="#0b1238"/>
    <g id="Group_248" data-name="Group 248">
      <path id="Path_223" data-name="Path 223" d="M6976.335,959.629l6.733,78.242-9.331,6.092Z" fill="#2e3054"/>
      <path id="Path_224" data-name="Path 224" d="M6973.738,1043.963h-63.781l.867-83.286,65.511-1.047Z" fill="#ebf7ff"/>
      <path id="Path_225" data-name="Path 225" d="M6958.672,970.5a1.6,1.6,0,1,1-1.6-1.6A1.6,1.6,0,0,1,6958.672,970.5Z" fill="#e4edf1"/>
      <path id="Path_226" data-name="Path 226" d="M6927.6,970.05a1.6,1.6,0,1,1-1.6-1.6A1.606,1.606,0,0,1,6927.6,970.05Z" fill="#e4edf1"/>
      <path id="Path_227" data-name="Path 227" d="M6973.738,1043.963l4.2-7.589,5.131,1.5Z" fill="#0b1238"/>
      <path id="Path_228" data-name="Path 228" d="M6957.41,970.42c0-.08,0-.187,0-.32.01-3.89-.488-29.884-15.479-30.421a10.719,10.719,0,0,0-8.046,3.122c-7.385,7.062-8.2,23.7-8.284,26.934,0,.109-.052.4-.052.465a.4.4,0,0,0,.8.063c.039-.013.041-.127.047-.329.071-2.6.824-19.659,8.043-26.56a10,10,0,0,1,7.468-2.9c14.212.508,14.707,26.479,14.712,29.725,0,.077,0,.278,0,.295a.408.408,0,0,0,.4.353.4.4,0,0,0,.386-.3S6957.41,970.429,6957.41,970.42Z" fill="#0b1238"/>
    </g>
    <g id="Group_269" data-name="Group 269" opacity="0.3">
      <g id="Group_264" data-name="Group 264">
        <g id="Group_249" data-name="Group 249">
          <path id="Path_229" data-name="Path 229" d="M7080.207,938.544h-24.948c-2.555,0-4.636-2.391-4.636-5.328s2.081-5.328,4.636-5.328h24.948a1.1,1.1,0,0,1,0,2.2h-24.948c-1.341,0-2.432,1.4-2.432,3.124s1.091,3.124,2.432,3.124h24.948a1.1,1.1,0,0,1,0,2.2Z" fill="#fff"/>
        </g>
        <g id="Group_250" data-name="Group 250">
          <path id="Path_230" data-name="Path 230" d="M7053.6,929.594a1.1,1.1,0,0,1-1.034-.722c-2.33-6.335-9.009-23.426-11.9-26.4a4.5,4.5,0,0,0-3.03-1.664,2.247,2.247,0,0,0-1.524.619,1.107,1.107,0,0,1-1.551.058,1.093,1.093,0,0,1-.081-1.537,4.4,4.4,0,0,1,3.077-1.34,6.436,6.436,0,0,1,4.69,2.328c3.8,3.911,12.035,26.224,12.384,27.172a1.1,1.1,0,0,1-1.033,1.482Z" fill="#fff"/>
        </g>
        <g id="Group_251" data-name="Group 251">
          <path id="Path_231" data-name="Path 231" d="M7057.324,947.219a5.452,5.452,0,1,1,5.452-5.452A5.459,5.459,0,0,1,7057.324,947.219Zm0-8.7a3.249,3.249,0,1,0,3.25,3.25A3.252,3.252,0,0,0,7057.324,938.517Z" fill="#fff"/>
        </g>
        <g id="Group_252" data-name="Group 252">
          <path id="Path_232" data-name="Path 232" d="M7080.164,947.219a5.452,5.452,0,1,1,5.452-5.452A5.457,5.457,0,0,1,7080.164,947.219Zm0-8.7a3.249,3.249,0,1,0,3.248,3.25A3.252,3.252,0,0,0,7080.164,938.517Z" fill="#fff"/>
        </g>
        <g id="Group_253" data-name="Group 253">
          <path id="Path_233" data-name="Path 233" d="M7086.237,910.7h-39.709a1.1,1.1,0,1,1,0-2.2h39.709a1.1,1.1,0,1,1,0,2.2Z" fill="#fff"/>
        </g>
        <g id="Group_254" data-name="Group 254">
          <path id="Path_234" data-name="Path 234" d="M7080.207,930.092a1.12,1.12,0,0,1-.326-.05,1.1,1.1,0,0,1-.726-1.379l6.03-19.391a1.1,1.1,0,1,1,2.1.653l-6.027,19.392A1.109,1.109,0,0,1,7080.207,930.092Z" fill="#fff"/>
        </g>
        <g id="Group_259" data-name="Group 259">
          <g id="Group_255" data-name="Group 255">
            <path id="Path_235" data-name="Path 235" d="M7054.567,929.727a1.1,1.1,0,0,1-1.1-1.1V909.759a1.1,1.1,0,0,1,2.2,0v18.866A1.1,1.1,0,0,1,7054.567,929.727Z" fill="#fff"/>
          </g>
          <g id="Group_256" data-name="Group 256">
            <path id="Path_236" data-name="Path 236" d="M7063.059,929.727a1.1,1.1,0,0,1-1.1-1.1V909.759a1.1,1.1,0,0,1,2.2,0v18.866A1.1,1.1,0,0,1,7063.059,929.727Z" fill="#fff"/>
          </g>
          <g id="Group_257" data-name="Group 257">
            <path id="Path_237" data-name="Path 237" d="M7071.551,929.727a1.1,1.1,0,0,1-1.1-1.1V909.759a1.1,1.1,0,1,1,2.2,0v18.866A1.1,1.1,0,0,1,7071.551,929.727Z" fill="#fff"/>
          </g>
          <g id="Group_258" data-name="Group 258">
            <path id="Path_238" data-name="Path 238" d="M7080.041,929.727a1.1,1.1,0,0,1-1.1-1.1V909.759a1.1,1.1,0,0,1,2.205,0v18.866A1.1,1.1,0,0,1,7080.041,929.727Z" fill="#fff"/>
          </g>
        </g>
        <g id="Group_262" data-name="Group 262">
          <g id="Group_260" data-name="Group 260">
            <path id="Path_239" data-name="Path 239" d="M7083.869,916.925h-34.707a1.1,1.1,0,1,1,0-2.2h34.707a1.1,1.1,0,1,1,0,2.2Z" fill="#fff"/>
          </g>
          <g id="Group_261" data-name="Group 261">
            <path id="Path_240" data-name="Path 240" d="M7081.5,923.394h-29.525a1.1,1.1,0,1,1,0-2.2H7081.5a1.1,1.1,0,0,1,0,2.2Z" fill="#fff"/>
          </g>
        </g>
        <g id="Group_263" data-name="Group 263">
          <path id="Path_241" data-name="Path 241" d="M7036.479,907.365a3.931,3.931,0,1,1,3.932-3.931A3.935,3.935,0,0,1,7036.479,907.365Zm0-5.66a1.728,1.728,0,1,0,1.728,1.729A1.731,1.731,0,0,0,7036.479,901.705Z" fill="#fff"/>
        </g>
      </g>
      <g id="Group_265" data-name="Group 265">
        <path id="Path_242" data-name="Path 242" d="M7081.352,906.882a1.1,1.1,0,0,1-1.058-1.411l2.893-9.879a13.8,13.8,0,0,1,9.665-23.643,14.141,14.141,0,0,1,1.468.077,13.805,13.805,0,0,1-1.436,27.534,14.156,14.156,0,0,1-1.471-.078l-.2-.021-9.186,7.187A1.109,1.109,0,0,1,7081.352,906.882Zm11.5-32.729a11.6,11.6,0,0,0-7.686,20.276,1.1,1.1,0,0,1,.325,1.131l-2.12,7.242,6.858-5.364a1.092,1.092,0,0,1,.847-.221c.189.029.377.054.569.074a11.6,11.6,0,1,0,1.207-23.138Z" fill="#fff"/>
      </g>
      <g id="Group_268" data-name="Group 268">
        <g id="Group_266" data-name="Group 266">
          <path id="Path_243" data-name="Path 243" d="M7092.194,878.694l.026,13.239h2.087V878.694Z" fill="#fff"/>
        </g>
        <g id="Group_267" data-name="Group 267">
          <path id="Path_244" data-name="Path 244" d="M7099.87,884.258l-13.237.026v2.087h13.237Z" fill="#fff"/>
        </g>
      </g>
    </g>
    <path id="Path_245" data-name="Path 245" d="M7087.485,986.945a15.993,15.993,0,1,1-15.993-16A15.994,15.994,0,0,1,7087.485,986.945Z" fill="#596a83"/>
    <path id="Path_246" data-name="Path 246" d="M7083.647,986.945a12.154,12.154,0,1,1-12.155-12.156A12.153,12.153,0,0,1,7083.647,986.945Z" fill="#2e3054"/>
    <path id="Path_247" data-name="Path 247" d="M7173.013,760.57l-12.838-9.078v-.454H6981.649l-11.595,8.2v49.044a14.989,14.989,0,1,1,29.475,1.159,17.881,17.881,0,1,1,35.761,0,17.868,17.868,0,0,1,35.481,0,17.882,17.882,0,0,1,35.764,0,17.88,17.88,0,1,1,35.76,0,15.392,15.392,0,0,1,30.718-.559Z" fill="#99add1" opacity="0.3" style="mix-blend-mode: multiply;isolation: isolate"/>
    <path id="Path_248" data-name="Path 248" d="M6981.214,747.3v35.374c0,8.62-8.042,15.609-17.961,15.609s-17.962-6.989-17.962-15.609v-13.3Z" fill="#d55765"/>
    <path id="Path_249" data-name="Path 249" d="M6981.214,769.381h-35.923l25.245-49.339h10.679Z" fill="#fa7071"/>
    <path id="Path_250" data-name="Path 250" d="M7017.137,747.3v35.374c0,8.62-8.042,15.609-17.961,15.609s-17.962-6.989-17.962-15.609V747.3Z" fill="#ebf7ff"/>
    <rect id="Rectangle_14" data-name="Rectangle 14" width="35.922" height="49.339" transform="translate(6981.214 720.042)" fill="#fff"/>
    <path id="Path_251" data-name="Path 251" d="M7053.061,747.3v35.374c0,8.62-8.043,15.609-17.962,15.609s-17.962-6.989-17.962-15.609V747.3Z" fill="#d55765"/>
    <rect id="Rectangle_15" data-name="Rectangle 15" width="35.924" height="49.339" transform="translate(7017.137 720.042)" fill="#fa7071"/>
    <path id="Path_252" data-name="Path 252" d="M7088.7,747.3v35.374c0,8.62-8.042,15.609-17.959,15.609s-17.963-6.989-17.963-15.609V747.3Z" fill="#ebf7ff"/>
    <rect id="Rectangle_16" data-name="Rectangle 16" width="35.922" height="49.339" transform="translate(7052.779 720.042)" fill="#fff"/>
    <path id="Path_253" data-name="Path 253" d="M7124.626,747.3v35.374c0,8.62-8.044,15.609-17.962,15.609S7088.7,791.3,7088.7,782.678V747.3Z" fill="#d55765"/>
    <rect id="Rectangle_17" data-name="Rectangle 17" width="35.925" height="49.339" transform="translate(7088.701 720.042)" fill="#fa7071"/>
    <path id="Path_254" data-name="Path 254" d="M7195.827,769.381v13.3c0,8.62-8.043,15.609-17.96,15.609S7159.9,791.3,7159.9,782.678V747.3Z" fill="#d55765"/>
    <path id="Path_255" data-name="Path 255" d="M7195.827,769.381H7159.9V720.042h13.918Z" fill="#fa7071"/>
    <path id="Path_256" data-name="Path 256" d="M7160.547,747.3v35.374c0,8.62-8.04,15.609-17.96,15.609s-17.961-6.989-17.961-15.609V747.3Z" fill="#ebf7ff"/>
    <rect id="Rectangle_18" data-name="Rectangle 18" width="35.922" height="49.339" transform="translate(7124.626 720.042)" fill="#fff"/>
    <rect id="Rectangle_19" data-name="Rectangle 19" width="204.297" height="8.788" transform="translate(6969.707 711.95)" fill="#93c8f6"/>
    <rect id="Rectangle_20" data-name="Rectangle 20" width="27.566" height="5.378" transform="translate(7060.984 691.383)" fill="#596a83"/>
    <g id="Group_273" data-name="Group 273">
      <g id="Group_270" data-name="Group 270">
        <path id="Path_257" data-name="Path 257" d="M7013.294,875.707a.941.941,0,1,1-1.841,0v-3.682a.94.94,0,1,1,1.841,0Z" fill="#2e3054"/>
        <path id="Path_258" data-name="Path 258" d="M7013.294,861.264a.941.941,0,1,1-1.841,0v-3.682a.94.94,0,1,1,1.841,0Z" fill="#2e3054"/>
      </g>
      <g id="Group_271" data-name="Group 271">
        <path id="Path_259" data-name="Path 259" d="M7020.683,870.379a.94.94,0,1,1-.921,1.595l-3.187-1.841a.94.94,0,1,1,.918-1.595Z" fill="#2e3054"/>
        <path id="Path_260" data-name="Path 260" d="M7008.175,863.156a.941.941,0,1,1-.92,1.595l-3.188-1.84a.94.94,0,1,1,.921-1.594Z" fill="#2e3054"/>
      </g>
      <g id="Group_272" data-name="Group 272">
        <path id="Path_261" data-name="Path 261" d="M7019.762,861.317a.94.94,0,1,1,.921,1.593l-3.19,1.841a.94.94,0,1,1-.918-1.595Z" fill="#2e3054"/>
        <path id="Path_262" data-name="Path 262" d="M7007.255,868.538a.94.94,0,1,1,.92,1.593l-3.187,1.84a.94.94,0,1,1-.921-1.593Z" fill="#2e3054"/>
      </g>
    </g>
    <g id="Group_277" data-name="Group 277">
      <g id="Group_276" data-name="Group 276">
        <g id="Group_274" data-name="Group 274">
          <path id="Path_263" data-name="Path 263" d="M6936.788,729a13.489,13.489,0,1,1,3-26.64,1.014,1.014,0,1,1-.45,1.978,11.442,11.442,0,1,0,8.522,8.186,1.014,1.014,0,1,1,1.957-.529A13.5,13.5,0,0,1,6936.788,729Z" fill="#fa7071"/>
        </g>
        <g id="Group_275" data-name="Group 275">
          <path id="Path_264" data-name="Path 264" d="M6936.632,718.418a1.015,1.015,0,0,1-.68-.261L6928.6,711.5a1.014,1.014,0,1,1,1.361-1.5l6.6,5.97,16.69-18.634a1.013,1.013,0,1,1,1.509,1.352l-17.369,19.4a1.021,1.021,0,0,1-.7.336Z" fill="#fa7071"/>
        </g>
      </g>
    </g>
  </g>
</svg>
