<svg xmlns="http://www.w3.org/2000/svg" width="36.495" height="37.052" viewBox="0 0 36.495 37.052">
  <g id="Group_430" data-name="Group 430" transform="translate(-2186.875 -1253.676)">
    <g id="Group_426" data-name="Group 426">
      <path id="Path_437" data-name="Path 437" d="M2218.786,1276.833h-22.648a.771.771,0,1,1,0-1.543h22.648a.765.765,0,0,0,.755-.637l2.257-10.593a2.277,2.277,0,0,0-.515-1.838,2.316,2.316,0,0,0-1.772-.827h-27.233a.772.772,0,0,1,0-1.544h27.233a3.859,3.859,0,0,1,3.8,4.5l-2.259,10.6A2.314,2.314,0,0,1,2218.786,1276.833Z" fill="#ea7536"/>
    </g>
    <g id="Group_427" data-name="Group 427">
      <path id="Path_438" data-name="Path 438" d="M2200,1290.728a3.859,3.859,0,1,1,3.86-3.86A3.864,3.864,0,0,1,2200,1290.728Zm0-6.176a2.316,2.316,0,1,0,2.316,2.316A2.319,2.319,0,0,0,2200,1284.552Z" fill="#ea7536"/>
    </g>
    <g id="Group_428" data-name="Group 428">
      <path id="Path_439" data-name="Path 439" d="M2216.979,1290.728a3.859,3.859,0,1,1,3.86-3.86A3.864,3.864,0,0,1,2216.979,1290.728Zm0-6.176a2.316,2.316,0,1,0,2.316,2.316A2.318,2.318,0,0,0,2216.979,1284.552Z" fill="#ea7536"/>
    </g>
    <g id="Group_429" data-name="Group 429">
      <path id="Path_440" data-name="Path 440" d="M2220.067,1281.465h-21.909c-.979,0-1.709-.785-2-2.154l-4.625-18.5c-.2-.579-.379-1.158-.546-1.684-1.06-3.35-1.295-3.906-3.337-3.906a.772.772,0,0,1,0-1.544c3.231,0,3.759,1.666,4.809,4.984.164.519.345,1.09.554,1.719l4.648,18.583c.131.6.359.959.5.959h21.909a.772.772,0,1,1,0,1.544Z" fill="#ea7536"/>
    </g>
  </g>
</svg>
