<svg xmlns="http://www.w3.org/2000/svg" width="35.509" height="37.052" viewBox="0 0 35.509 37.052">
  <g id="Group_438" data-name="Group 438" transform="translate(-2005.66 -1253.676)">
    <g id="Group_431" data-name="Group 431">
      <path id="Path_441" data-name="Path 441" d="M2037,1270.658a4.364,4.364,0,0,0-6.793,0,4.364,4.364,0,0,0-6.793,0,4.364,4.364,0,0,0-6.793,0,4.364,4.364,0,0,0-6.793,0,4.027,4.027,0,0,1-4.168-3.859.772.772,0,0,1,1.544,0,2.645,2.645,0,0,0,5.249,0,.772.772,0,0,1,1.544,0,2.645,2.645,0,0,0,5.249,0,.772.772,0,0,1,1.544,0,2.645,2.645,0,0,0,5.249,0,.771.771,0,1,1,1.543,0,2.645,2.645,0,0,0,5.249,0,.772.772,0,0,1,1.544,0,2.645,2.645,0,0,0,5.249,0,.772.772,0,0,1,1.544,0A4.027,4.027,0,0,1,2037,1270.658Z" fill="#ea7536"/>
    </g>
    <g id="Group_432" data-name="Group 432">
      <path id="Path_442" data-name="Path 442" d="M2006.433,1267.571a.78.78,0,0,1-.232-.036.773.773,0,0,1-.505-.969l3.54-11.23a2.32,2.32,0,0,1,2.221-1.66h23.916a2.326,2.326,0,0,1,2.227,1.68l3.533,11.21a.772.772,0,1,1-1.473.465l-3.539-11.231a.781.781,0,0,0-.748-.58h-23.916a.774.774,0,0,0-.742.56l-3.546,11.251A.773.773,0,0,1,2006.433,1267.571Z" fill="#ea7536"/>
    </g>
    <g id="Group_433" data-name="Group 433">
      <path id="Path_443" data-name="Path 443" d="M2036.537,1290.728h-26.245a2.318,2.318,0,0,1-2.315-2.316v-18.526a.771.771,0,1,1,1.543,0v18.526a.772.772,0,0,0,.772.772h26.245a.772.772,0,0,0,.772-.772v-18.526a.772.772,0,0,1,1.544,0v18.526A2.319,2.319,0,0,1,2036.537,1290.728Z" fill="#ea7536"/>
    </g>
    <g id="Group_434" data-name="Group 434">
      <path id="Path_444" data-name="Path 444" d="M2031.906,1283.009h-3.088a2.319,2.319,0,0,1-2.316-2.316v-4.632a2.319,2.319,0,0,1,2.316-2.315h3.088a2.318,2.318,0,0,1,2.315,2.315v4.632A2.318,2.318,0,0,1,2031.906,1283.009Zm-3.088-7.719a.772.772,0,0,0-.772.771v4.632a.772.772,0,0,0,.772.772h3.088a.772.772,0,0,0,.772-.772v-4.632a.772.772,0,0,0-.772-.771Z" fill="#ea7536"/>
    </g>
    <g id="Group_435" data-name="Group 435">
      <path id="Path_445" data-name="Path 445" d="M2021.871,1290.728h-9.263v-14.667a2.318,2.318,0,0,1,2.316-2.315h4.631a2.318,2.318,0,0,1,2.316,2.315Zm-7.719-1.544h6.175v-13.123a.772.772,0,0,0-.772-.771h-4.631a.772.772,0,0,0-.772.771Z" fill="#ea7536"/>
    </g>
    <g id="Group_436" data-name="Group 436">
      <path id="Path_446" data-name="Path 446" d="M2016.468,1279.149" fill="#ea7536"/>
    </g>
    <g id="Group_437" data-name="Group 437">
      <path id="Path_447" data-name="Path 447" d="M2016.468,1277.6" fill="#ea7536"/>
    </g>
  </g>
</svg>
