<svg xmlns="http://www.w3.org/2000/svg" width="31.428" height="41.505" viewBox="0 0 31.428 41.505">
  <g id="Group_88" data-name="Group 88" transform="translate(-7889.641 -413.43)">
    <path id="Path_61" data-name="Path 61" d="M7920.227,454.935h-29.744a.842.842,0,0,1-.842-.846V429.123a.841.841,0,0,1,.842-.845h29.744a.841.841,0,0,1,.842.845v24.966A.842.842,0,0,1,7920.227,454.935Zm-28.9-1.692h28.061V429.969h-28.061Z" fill="#ea7536"/>
    <g id="Component_1_1" data-name="Component 1 – 1" transform="translate(7894.758 413.43)">
      <path id="Path_62" data-name="Path 62" d="M7915.1,429.969a.84.84,0,0,1-.841-.846v-5.095a8.909,8.909,0,0,0-17.818,0v5.095a.842.842,0,1,1-1.684,0v-5.095a10.593,10.593,0,1,1,21.186,0v5.095A.841.841,0,0,1,7915.1,429.969Z" transform="translate(-7894.758 -413.43)" fill="#ea7536"/>
    </g>
  </g>
</svg>
