<svg xmlns="http://www.w3.org/2000/svg" width="40.259" height="35.686" viewBox="0 0 40.259 35.686">
  <g id="Group_23" data-name="Group 23" transform="translate(-10758.56 -1000.143)">
    <g id="Group_19" data-name="Group 19">
      <g id="Path_14" data-name="Path 14" fill="none">
        <path d="M10793.413,1035.829h-34.006a.847.847,0,0,1-.848-.847v-23.727a11.112,11.112,0,0,1,11.112-11.112h23.677a.866.866,0,0,1,.876.7.822.822,0,0,1-.812.947h-22.606a10.607,10.607,0,0,0-10.606,10.608v21.753a.027.027,0,0,0,.026.027h33.122a.867.867,0,0,1,.876.7A.821.821,0,0,1,10793.413,1035.829Z" stroke="none"/>
        <path d="M 10793.4130859375 1035.828979492188 L 10759.4072265625 1035.828979492188 C 10758.939453125 1035.828979492188 10758.5595703125 1035.449951171875 10758.5595703125 1034.982055664062 L 10758.5595703125 1011.255065917969 C 10758.5595703125 1005.117980957031 10763.53515625 1000.14306640625 10769.671875 1000.14306640625 L 10793.3486328125 1000.14306640625 C 10793.7685546875 1000.14306640625 10794.166015625 1000.429016113281 10794.224609375 1000.844970703125 C 10794.2958984375 1001.354064941406 10793.912109375 1001.7919921875 10793.4130859375 1001.7919921875 L 10770.806640625 1001.7919921875 C 10764.94921875 1001.7919921875 10760.2001953125 1006.541015625 10760.2001953125 1012.400024414062 L 10760.2001953125 1034.152954101562 C 10760.2001953125 1034.16796875 10760.2119140625 1034.180053710938 10760.2265625 1034.180053710938 L 10793.3486328125 1034.180053710938 C 10793.7685546875 1034.180053710938 10794.166015625 1034.467041015625 10794.224609375 1034.883056640625 C 10794.2958984375 1035.390991210938 10793.912109375 1035.828979492188 10793.4130859375 1035.828979492188 Z" stroke="none" fill="#ea7536"/>
      </g>
    </g>
    <g id="Group_22" data-name="Group 22">
      <g id="Group_20" data-name="Group 20">
        <g id="Path_15" data-name="Path 15" fill="none">
          <path d="M10796.751,1019.07h-28.59a.825.825,0,0,1,0-1.649h28.59a.825.825,0,0,1,0,1.649Z" stroke="none"/>
          <path d="M 10796.7509765625 1019.070007324219 L 10768.1611328125 1019.070007324219 C 10767.703125 1019.070007324219 10767.3408203125 1018.700012207031 10767.3408203125 1018.244995117188 C 10767.3408203125 1017.791015625 10767.703125 1017.421020507812 10768.1611328125 1017.421020507812 L 10796.7509765625 1017.421020507812 C 10797.208984375 1017.421020507812 10797.5712890625 1017.791015625 10797.5712890625 1018.244995117188 C 10797.5712890625 1018.700012207031 10797.208984375 1019.070007324219 10796.7509765625 1019.070007324219 Z" stroke="none" fill="#ea7536"/>
        </g>
      </g>
      <g id="Group_21" data-name="Group 21">
        <g id="Path_16" data-name="Path 16" fill="none">
          <path d="M10790.759,1026.328a.809.809,0,0,1-.578-.242.825.825,0,0,1,0-1.165l6.65-6.651-6.691-6.7a.826.826,0,0,1,0-1.166.815.815,0,0,1,1.158,0l7.278,7.278a.823.823,0,0,1,0,1.166l-7.237,7.233A.815.815,0,0,1,10790.759,1026.328Z" stroke="none"/>
          <path d="M 10790.7587890625 1026.328002929688 C 10790.5498046875 1026.328002929688 10790.3408203125 1026.248046875 10790.1806640625 1026.086059570312 C 10789.859375 1025.765014648438 10789.859375 1025.241943359375 10790.1806640625 1024.921020507812 L 10796.8310546875 1018.270080566406 L 10790.1396484375 1011.574951171875 C 10789.818359375 1011.252990722656 10789.818359375 1010.73095703125 10790.1396484375 1010.408996582031 C 10790.4619140625 1010.086975097656 10790.9755859375 1010.086975097656 10791.2978515625 1010.408996582031 L 10798.576171875 1017.686950683594 C 10798.7373046875 1017.842956542969 10798.818359375 1018.052978515625 10798.818359375 1018.270080566406 C 10798.818359375 1018.486999511719 10798.7373046875 1018.695983886719 10798.576171875 1018.853088378906 L 10791.3388671875 1026.086059570312 C 10791.1767578125 1026.248046875 10790.96875 1026.328002929688 10790.7587890625 1026.328002929688 Z" stroke="none" fill="#ea7536"/>
        </g>
      </g>
    </g>
  </g>
</svg>
