<svg xmlns="http://www.w3.org/2000/svg" xmlns:xlink="http://www.w3.org/1999/xlink" width="389.673" height="424.885" viewBox="0 0 389.673 424.885">
  <defs>
    <clipPath id="clip-path">
      <path id="Path_171" data-name="Path 171" d="M8143.076,634.79c-76.657-30.021-163.711-1.045-214.652,61.619-56.03,68.925-65.631,170.277-23.8,248.648,38.845,72.786,118.753,115.889,200.854,99.08,96.611-19.778,159.164-110.711,162.933-205.986C8269.673,753,8225.09,666.909,8143.076,634.79Z" fill="none"/>
    </clipPath>
    <clipPath id="clip-path-2">
      <path id="Path_161" data-name="Path 161" d="M8056.069,833.023c-1.731,23.133,1.169,29.193.208,41.582-1.1,14.188,61.968,13,65.549-5.386.5-2.577-10.4-50.285-10.4-50.285Z" fill="none"/>
    </clipPath>
  </defs>
  <g id="Group_207" data-name="Group 207" transform="translate(-7878.759 -622.877)">
    <g id="Group_206" data-name="Group 206" clip-path="url(#clip-path)">
      <g id="Group_205" data-name="Group 205">
        <g id="Group_102" data-name="Group 102">
          <path id="Path_71" data-name="Path 71" d="M7963.485,1069.836l235.368-7.143c.44-30.925,8.078-176.316-40.292-191.25-28.992-8.952-146.92.215-146.92.215-97.62,2.6-58.063,111.015-51.7,142.916C7964.887,1039.346,7964.8,1057.686,7963.485,1069.836Z" fill="#e54945"/>
        </g>
        <g id="Group_103" data-name="Group 103">
          <path id="Path_72" data-name="Path 72" d="M7998,950.714c7.406-.442,108.743,7.829,174.917-11.657l9.519,68.727s-85.888,91.961-197.977,28.582Z" fill="bisque"/>
        </g>
        <g id="Group_104" data-name="Group 104">
          <path id="Path_73" data-name="Path 73" d="M8129.853,696.028c-4.157-4.44-9.238-4.722-13.862-2.816-.406-4.231-3.539-7.424-7.9-8.37a15.967,15.967,0,0,0-9.008,1.241c.418-1.327.835-2.656,1.255-3.973,1.32-4.145,3.421-8.652,1.752-13-3.6-9.392-14.922-7.24-22.08-4.054-13.132,5.845-29.928,21.411-32.38,37.49-2.263-2.754-5.465-3.866-9.827-1.19-6.018,3.7-7.074,14.6-3.54,21.04-10.4,3.578-20.034,11.915-19.7,23.279.247,7.8,3.342,15.913,5.875,23.15,2.059,6.049,4.262,12.494,7.384,18.3.78,2.842,1.679,5.647,3.572,7.894.076.08.112.16.19.2a12.042,12.042,0,0,0,.948,1.045c3.362,2.916,8.164,3.405,12.414,4a133.694,133.694,0,0,0,50.068-2.48c9.224-2.2,22.473-4.132,27.034-13.006a.591.591,0,0,0,.715-.371,36,36,0,0,0,1.09-6.585c.113-.815.184-1.65.265-2.48a42.079,42.079,0,0,0,1.223-5.027c4.4-11.538,1.833-28.307-4.8-39.052-.2-.432-.361-.9-.573-1.319a53.049,53.049,0,0,0,8.453-11.7c1.57-3.085,3.95-8.206,3.832-12.484C8132.942,702.353,8132.553,698.912,8129.853,696.028Z" fill="#49477c"/>
        </g>
        <g id="Group_105" data-name="Group 105">
          <path id="Path_74" data-name="Path 74" d="M8043.423,820.954s-1.325-5-3.664-15.755c-1.188-5.461-4.464-11.5-4.234-18.682.6-18.723.408-32.029,1.345-35.161,1.94-6.48,3.414-22.055,40.544-23.345s32.654,16.062,34.526,24.231,3.479,13.879,6.565,23.561c1.357,4.259.956,30.211.83,35.73s-16.023,27.255-30.755,33.406l-8,.892S8050.734,833.967,8043.423,820.954Z" fill="#fb8875"/>
        </g>
        <g id="Group_106" data-name="Group 106">
          <path id="Path_75" data-name="Path 75" d="M8062.543,814.6s23.373,2.668,35.476-9.975c0,0,.756,15.249-13.19,18.855S8062.543,814.6,8062.543,814.6Z" fill="#e54945"/>
        </g>
        <g id="Group_107" data-name="Group 107">
          <path id="Path_76" data-name="Path 76" d="M8094.275,809.591a16.267,16.267,0,0,1-11.007,8.855,19.231,19.231,0,0,1-15.783-2.689c-2.026-1.324,5.262-.274,12.49-2.091C8087.745,811.712,8095.536,807.018,8094.275,809.591Z" fill="#fff"/>
        </g>
        <g id="Group_108" data-name="Group 108">
          <path id="Path_77" data-name="Path 77" d="M8093.658,818.028c-2.737,1.017-6.947,3.495-11.44,4.625a40.067,40.067,0,0,1-6.26.995,18.981,18.981,0,0,0,7.7.3C8090.469,822.723,8092.855,819.158,8093.658,818.028Z" fill="#fff"/>
        </g>
        <g id="Group_109" data-name="Group 109">
          <path id="Path_78" data-name="Path 78" d="M8214.395,1062.222l92.336-2.8c-9.91-36.526-25.368-76.746-43.841-117-33.65-73.337-80.37-72.8-102.371-74.116-38.894-2.318,7.354,52.3,27.717,112.746C8197.387,1008.211,8206.483,1036.758,8214.395,1062.222Z" fill="#49477c"/>
        </g>
        <g id="Group_110" data-name="Group 110">
          <path id="Path_79" data-name="Path 79" d="M8056.069,833.023c-1.731,23.133,1.169,29.193.208,41.582-1.1,14.188,61.968,13,65.549-5.386.5-2.577-10.4-50.285-10.4-50.285Z" fill="#fb8875"/>
        </g>
        <g id="Group_111" data-name="Group 111">
          <path id="Path_80" data-name="Path 80" d="M7915.562,1071.29l96.079-199.632c-45.321.183-101.63,28-135.6,82.768-30.883,49.8-42.372,85.78-38.356,119.227Z" fill="#49477c"/>
        </g>
        <g id="Group_112" data-name="Group 112">
          <path id="Path_81" data-name="Path 81" d="M8042.082,796.426c3.1,5.748,2.587,11.956-1.158,13.865s-9.575-.606-12.68-6.354-2.31-12.552,1.435-14.461S8038.977,790.678,8042.082,796.426Z" fill="#fb8875"/>
        </g>
        <g id="Group_113" data-name="Group 113">
          <path id="Path_82" data-name="Path 82" d="M8116.384,786.222c-1.764,6.291.108,12.232,4.181,13.27s9.206-2.7,10.971-8.988-.509-12.753-4.582-13.791S8118.148,779.932,8116.384,786.222Z" fill="#fb8875"/>
        </g>
        <g id="Group_114" data-name="Group 114">
          <path id="Path_83" data-name="Path 83" d="M8067.633,815.3a51.042,51.042,0,0,1-5.144-.223.476.476,0,0,1-.422-.529.46.46,0,0,1,.529-.422c.234.022,23.282,2.486,35.078-9.834a.48.48,0,0,1,.692.665C8089.724,813.989,8075.3,815.3,8067.633,815.3Z" fill="#e54945"/>
        </g>
        <g id="Group_115" data-name="Group 115" opacity="0.51">
          <path id="Path_84" data-name="Path 84" d="M8048,788.223c.412.382,18.681-2.37,18.681-2.37s1.577-8.449.486-10.361-6.054-1.235-8.164-.947c-2.775.379-15.28.812-17.741,3.611C8039.982,779.609,8046.183,786.539,8048,788.223Z" fill="#e54945"/>
        </g>
        <g id="Group_116" data-name="Group 116" opacity="0.51">
          <path id="Path_85" data-name="Path 85" d="M8107.138,778.855c-.3.477-18.471,3.628-18.471,3.628s-4.756-7.12-4.21-9.253,5.511-2.794,7.621-3.075c2.776-.369,14.95-3.264,18.065-1.216C8111.759,770,8108.441,776.75,8107.138,778.855Z" fill="#e54945"/>
        </g>
        <g id="Group_117" data-name="Group 117">
          <path id="Path_86" data-name="Path 86" d="M8072.511,805.909a.481.481,0,0,1-.478-.442,1.945,1.945,0,0,1,.628-1.68c1.238-1.1,3.831-.606,4.13-.549a.479.479,0,0,1,.374.566.5.5,0,0,1-.566.374c-.67-.141-2.562-.341-3.305.329a.992.992,0,0,0-.3.887.479.479,0,0,1-.442.515Z" fill="#e54945"/>
        </g>
        <g id="Group_118" data-name="Group 118">
          <path id="Path_87" data-name="Path 87" d="M8074.067,803.765a.378.378,0,0,1,.27.264,1.918,1.918,0,0,1,.48-.275c.091-.043.232.011.217.128-.116.9-1.458,3.023-2.583,1.882C8071.528,804.828,8073.074,803.525,8074.067,803.765Z" fill="#e54945"/>
        </g>
        <g id="Group_119" data-name="Group 119">
          <path id="Path_88" data-name="Path 88" d="M8088.482,803.077a.431.431,0,0,1-.146-.022.476.476,0,0,1-.31-.6,5.615,5.615,0,0,0,.259-1.624,11.736,11.736,0,0,0-1.312-2.835.479.479,0,1,1,.828-.484,11.843,11.843,0,0,1,1.441,3.268,6.47,6.47,0,0,1-.3,1.968A.478.478,0,0,1,8088.482,803.077Z" fill="#e54945"/>
        </g>
        <g id="Group_120" data-name="Group 120">
          <path id="Path_89" data-name="Path 89" d="M8071.214,806.526a.476.476,0,0,1-.389-.2,6.576,6.576,0,0,1-.9-1.776,11.925,11.925,0,0,1,.355-3.556.478.478,0,0,1,.934.205,11.647,11.647,0,0,0-.36,3.1,5.426,5.426,0,0,0,.746,1.461.481.481,0,0,1-.107.67A.47.47,0,0,1,8071.214,806.526Z" fill="#e54945"/>
        </g>
        <g id="Group_121" data-name="Group 121">
          <path id="Path_90" data-name="Path 90" d="M8082.567,803.288a.465.465,0,0,1-.354-.157.475.475,0,0,1,.033-.676c.22-.2,2.179-1.934,3.832-1.641a1.963,1.963,0,0,1,1.4,1.123.481.481,0,1,1-.861.428.99.99,0,0,0-.716-.608c-1-.152-2.542.985-3.012,1.408A.466.466,0,0,1,8082.567,803.288Z" fill="#e54945"/>
        </g>
        <g id="Group_122" data-name="Group 122">
          <path id="Path_91" data-name="Path 91" d="M8084.855,801.515a.38.38,0,0,0-.1.365,1.914,1.914,0,0,0-.553.009c-.1.011-.194.129-.121.222.562.718,2.8,1.853,3.182.3C8087.581,801.131,8085.586,800.8,8084.855,801.515Z" fill="#e54945"/>
        </g>
        <g id="Group_123" data-name="Group 123">
          <path id="Path_92" data-name="Path 92" d="M8080.11,804.71a.479.479,0,0,1-.079-.951c2.328-.389,4.09-4.6,4.639-6.4-.439-1.089-2.725-6.905-5.056-12.834l-.692-1.757a7.416,7.416,0,0,1-.335-4.388c.391-1.7,2.328-5.313,4.631-6.18a.481.481,0,0,1,.337.9c-1.849.693-3.687,4-4.034,5.493a6.48,6.48,0,0,0,.3,3.825l.69,1.754c1.739,4.426,4.977,12.663,5.109,12.964l.07.158-.045.171c-.078.274-1.965,6.656-5.453,7.236A.41.41,0,0,1,8080.11,804.71Z" fill="#e54945"/>
        </g>
        <g id="Group_124" data-name="Group 124">
          <path id="Path_93" data-name="Path 93" d="M8040.643,778.557c9.87-6.752,27.533-7.7,27.256-3.509C8067.573,779.993,8043.569,781.242,8040.643,778.557Z" fill="#49477c"/>
        </g>
        <g id="Group_125" data-name="Group 125">
          <path id="Path_94" data-name="Path 94" d="M8111.172,767.906c-11.834-3.587-29.875.677-28.416,4.617C8084.477,777.173,8108.985,771.339,8111.172,767.906Z" fill="#49477c"/>
        </g>
        <g id="Group_126" data-name="Group 126">
          <path id="Path_95" data-name="Path 95" d="M8081.7,842.3c1.5-2.617,1.454-5.387.994-8.86s5.819-3.509,6.97-1.777c.9,1.35-.67,8.372,5.9,10.532,3.558,1.17-1.588,5.377-14.439,4.885C8076.922,846.92,8081.1,843.344,8081.7,842.3Z" fill="#49477c"/>
        </g>
        <g id="Group_127" data-name="Group 127" opacity="0.5">
          <path id="Path_96" data-name="Path 96" d="M8079,826.822s7.818.515,11.578-3.108a5.9,5.9,0,0,1-5.036,5.919A6.5,6.5,0,0,1,8079,826.822Z" fill="#e54945"/>
        </g>
        <g id="Group_128" data-name="Group 128">
          <path id="Path_97" data-name="Path 97" d="M8044.441,869.7s14.1,37.17,45.663,33.538,40.132-35.158,40.132-35.158-24.431-1.6-42.909-1.507A299.622,299.622,0,0,0,8044.441,869.7Z" fill="#fb8875"/>
        </g>
        <g id="Group_129" data-name="Group 129">
          <path id="Path_98" data-name="Path 98" d="M8018.532,1068.165q4.462-30.269,8.607-60.584c1.089-6.557,2.182-13.114,3.2-19.682,2.568-16.519,4.885-33.077,6.83-49.681,1.537-13.129,4.082-27.508,3.889-41.223q.226-3.958.167-7.91a39.6,39.6,0,0,0-.832-12.005c-.118-2.16-.266-4.311-.475-6.435a.722.722,0,0,0-1.149-.505c-.039-.042-.062-.1-.1-.139-.783.008-1.565-.043-2.347-.072a1.972,1.972,0,0,0-.8,1.432c-3.468,32.935-6.873,65.572-12.313,98.277q-8.037,48.321-15.973,96.66c-.122.739-.239,1.481-.36,2.221Z" fill="#c4312d"/>
        </g>
        <g id="Group_130" data-name="Group 130">
          <path id="Path_99" data-name="Path 99" d="M8008.293,1068.476c17.88-97.165,28.936-200.076,28.936-200.076s-30.273,0-57,9.218-41.564,74.262-41.257,135.571c.064,12.663-7.149,34.1-16.837,57.9Z" fill="#49477c"/>
        </g>
        <g id="Group_131" data-name="Group 131">
          <path id="Path_100" data-name="Path 100" d="M8163.766,1063.758l47.511-1.442a340.825,340.825,0,0,1,.422-42.111c3.026-38.065,19.636-168.143-74.545-151.874C8137.154,868.331,8166.152,947.426,8163.766,1063.758Z" fill="#49477c"/>
        </g>
        <g id="Group_132" data-name="Group 132">
          <path id="Path_101" data-name="Path 101" d="M8006.667,1068.526q7.756-43.909,15.48-87.823c3.157-17.977,6.359-35.946,9.357-53.95,3.012-18.093,3.989-38.082,8.069-56,.731-3.214-3.571-3.372-4.464-1.034-6.04,15.813-7.77,35.063-10.779,51.662q-5,27.558-9.99,55.116-8.342,46.125-16.464,92.291Z" fill="#38365e"/>
        </g>
        <g id="Group_133" data-name="Group 133">
          <path id="Path_102" data-name="Path 102" d="M8156.491,960.7c.695,4.826,1.3,9.662,1.866,14.5,2.632,27.648,3.841,55.444,3.81,83.21-.034,1.8-.141,3.6-.188,5.4l7.065-.214c.022-3.95.1-7.9.068-11.848-.028-3.7-.144-7.415-.213-11.122-.125-16.438-.834-32.879-2.244-49.258-.8-10.835-1.742-21.656-3-32.434-3.449-29.427-9.887-62.235-21.8-89.757-2.069-4.777-5.865-1.645-5.618.256,2.041,15.722,8.534,31.455,12.051,46.983Q8153.259,938.393,8156.491,960.7Z" fill="#38365e"/>
        </g>
        <g id="Group_134" data-name="Group 134">
          <path id="Path_103" data-name="Path 103" d="M8045.421,940.278c-.529-.582-1.313.275-.837.859,1.037,1.274,2.046,3.114,3.589,3.765a.361.361,0,0,0,.517-.408C8048.268,942.821,8046.557,941.525,8045.421,940.278Z" fill="#c4312d"/>
        </g>
        <g id="Group_135" data-name="Group 135">
          <path id="Path_104" data-name="Path 104" d="M8049.263,923.619c-.316-.7-1.505-.181-1.236.54a19.962,19.962,0,0,1,.684,3.855c.106.627.957.463,1.128-.015A5.764,5.764,0,0,0,8049.263,923.619Z" fill="#c4312d"/>
        </g>
        <g id="Group_136" data-name="Group 136">
          <path id="Path_105" data-name="Path 105" d="M8063.573,938.6c-1.119-.749-2.444-.554-3.6-1.429-.694-.525-1.664.4-.971,1,1.15,1,3.152,2.258,4.582,1.192A.447.447,0,0,0,8063.573,938.6Z" fill="#c4312d"/>
        </g>
        <g id="Group_137" data-name="Group 137">
          <path id="Path_106" data-name="Path 106" d="M8061.357,920.84a49.755,49.755,0,0,0-.792,7.457.7.7,0,0,0,1.376.167,49.677,49.677,0,0,0,.8-7.455C8062.8,920.227,8061.461,920.053,8061.357,920.84Z" fill="#c4312d"/>
        </g>
        <g id="Group_138" data-name="Group 138">
          <path id="Path_107" data-name="Path 107" d="M8058.859,910.788c-1.552-1.44-3.751-2.163-5.415-3.541-.693-.574-1.644.364-.987,1.013,1.554,1.534,3.726,3.464,6.028,3.466A.552.552,0,0,0,8058.859,910.788Z" fill="#c4312d"/>
        </g>
        <g id="Group_139" data-name="Group 139">
          <path id="Path_108" data-name="Path 108" d="M8106.008,934.814c-1.552-1.44-3.75-2.163-5.415-3.541-.692-.574-1.644.364-.987,1.013,1.555,1.534,3.727,3.464,6.028,3.466A.552.552,0,0,0,8106.008,934.814Z" fill="#c4312d"/>
        </g>
        <g id="Group_140" data-name="Group 140">
          <path id="Path_109" data-name="Path 109" d="M8051.443,897.02a16.451,16.451,0,0,0-.916,4.109.6.6,0,0,0,1.115.286,16.426,16.426,0,0,0,1.162-4.039A.7.7,0,0,0,8051.443,897.02Z" fill="#c4312d"/>
        </g>
        <g id="Group_141" data-name="Group 141">
          <path id="Path_110" data-name="Path 110" d="M8056.346,921.116a6.971,6.971,0,0,0-4.377-1.17c-.83-.005-.772,1.183.017,1.261,1.326.13,2.519.627,3.811.881C8056.3,922.186,8056.848,921.493,8056.346,921.116Z" fill="#c4312d"/>
        </g>
        <g id="Group_142" data-name="Group 142">
          <path id="Path_111" data-name="Path 111" d="M8074.515,921.522c-1.449-.83-2.941-1.089-4.271-2.215-.655-.554-1.559.346-.939.964,1.34,1.333,3.126,2.587,5.088,2.286C8074.9,922.48,8074.9,921.742,8074.515,921.522Z" fill="#c4312d"/>
        </g>
        <g id="Group_143" data-name="Group 143">
          <path id="Path_112" data-name="Path 112" d="M8074.665,932.612a16.013,16.013,0,0,0-4.727-.824c-.769-.087-.933,1.233-.166,1.361a15.785,15.785,0,0,0,4.621.52C8074.875,933.6,8075.243,932.868,8074.665,932.612Z" fill="#c4312d"/>
        </g>
        <g id="Group_144" data-name="Group 144">
          <path id="Path_113" data-name="Path 113" d="M8098.187,946.338a16.044,16.044,0,0,0-4.727-.823c-.769-.088-.933,1.232-.166,1.361a15.785,15.785,0,0,0,4.621.52C8098.4,947.33,8098.765,946.594,8098.187,946.338Z" fill="#c4312d"/>
        </g>
        <g id="Group_145" data-name="Group 145">
          <path id="Path_114" data-name="Path 114" d="M8055.536,941.941a.578.578,0,0,0-.989.6,25.986,25.986,0,0,0,2.943,5.079c.371.433,1.124-.046.944-.567A26.1,26.1,0,0,0,8055.536,941.941Z" fill="#c4312d"/>
        </g>
        <g id="Group_146" data-name="Group 146">
          <path id="Path_115" data-name="Path 115" d="M8072.665,939.353c-.5-.6-1.565.231-1.081.857a15.949,15.949,0,0,1,1.9,4.162c.189.457,1.049.63,1.128-.014A6.786,6.786,0,0,0,8072.665,939.353Z" fill="#c4312d"/>
        </g>
        <g id="Group_147" data-name="Group 147">
          <path id="Path_116" data-name="Path 116" d="M8085.555,922.595c-1.252-.155-2.38.2-3.628-.272a4.716,4.716,0,0,1-3.043-3.379c-.172-.72-1.188-.381-1.08.313a5.783,5.783,0,0,0,3.241,4.331c1.365.666,3.6,1.071,4.732-.2C8085.987,923.153,8085.937,922.642,8085.555,922.595Z" fill="#c4312d"/>
        </g>
        <g id="Group_148" data-name="Group 148">
          <path id="Path_117" data-name="Path 117" d="M8074.826,910.569c-1-.246-1.98.107-3.005-.056a5.307,5.307,0,0,1-3.614-2.295c-.491-.71-1.638-.039-1.16.7,1.307,2.01,5.883,4.925,7.982,2.385A.445.445,0,0,0,8074.826,910.569Z" fill="#c4312d"/>
        </g>
        <g id="Group_149" data-name="Group 149">
          <path id="Path_118" data-name="Path 118" d="M8052.527,888.468c-1.739-1.333-3.516-2.149-5-3.869-.447-.517-1.258.165-.921.73,1.141,1.911,3.195,3.948,5.521,4.15A.594.594,0,0,0,8052.527,888.468Z" fill="#c4312d"/>
        </g>
        <g id="Group_150" data-name="Group 150">
          <path id="Path_119" data-name="Path 119" d="M8111.015,945.741c-1.74-1.334-3.516-2.15-5-3.869-.448-.517-1.259.164-.921.73,1.141,1.91,3.194,3.948,5.52,4.149A.594.594,0,0,0,8111.015,945.741Z" fill="#c4312d"/>
        </g>
        <g id="Group_151" data-name="Group 151">
          <path id="Path_120" data-name="Path 120" d="M8046.729,909.807c-.646-.982-1.558-1.718-2.128-2.77a7.241,7.241,0,0,1-.832-4.162c.044-.538-.847-.647-.947-.115-.513,2.7.32,6.867,3.347,7.795A.509.509,0,0,0,8046.729,909.807Z" fill="#c4312d"/>
        </g>
        <g id="Group_152" data-name="Group 152">
          <path id="Path_121" data-name="Path 121" d="M8048.261,895.287c-1.725.284-3.337-.043-4.207-1.7-.351-.671-1.537-.178-1.236.54.964,2.3,3.808,3.7,5.938,1.986C8049.191,895.76,8048.681,895.217,8048.261,895.287Z" fill="#c4312d"/>
        </g>
        <g id="Group_153" data-name="Group 153">
          <path id="Path_122" data-name="Path 122" d="M8064.147,904.384c-1.317-.506-2.425-.615-3.489-1.693-.561-.568-1.34.283-.848.87,1.051,1.255,2.664,2.338,4.351,1.884A.556.556,0,0,0,8064.147,904.384Z" fill="#c4312d"/>
        </g>
        <g id="Group_154" data-name="Group 154">
          <path id="Path_123" data-name="Path 123" d="M8047.738,918.6c-1.843-.931-4.137-.29-5.961.416a.54.54,0,0,0,.3,1.036c1.847-.426,3.757-.129,5.558-.57A.487.487,0,0,0,8047.738,918.6Z" fill="#c4312d"/>
        </g>
        <g id="Group_155" data-name="Group 155">
          <path id="Path_124" data-name="Path 124" d="M8045.3,930.2a30.62,30.62,0,0,0-5.186,2.731c-.7.4-.062,1.445.643,1.068a30.571,30.571,0,0,0,5.045-2.963C8046.193,930.718,8045.751,930.046,8045.3,930.2Z" fill="#c4312d"/>
        </g>
        <g id="Group_156" data-name="Group 156">
          <path id="Path_125" data-name="Path 125" d="M8083.375,929.409c-2.511.334-4.474.842-6.805-.571-.7-.422-1.262.634-.615,1.084,2.166,1.507,5.628,2.248,7.782.331A.5.5,0,0,0,8083.375,929.409Z" fill="#c4312d"/>
        </g>
        <g id="Group_157" data-name="Group 157">
          <path id="Path_126" data-name="Path 126" d="M8084.134,938.188a5.285,5.285,0,0,1-5.432.932c-.746-.334-1.387.737-.637,1.124a5.112,5.112,0,0,0,6.833-1.482C8085.232,938.268,8084.523,937.879,8084.134,938.188Z" fill="#c4312d"/>
        </g>
        <g id="Group_158" data-name="Group 158">
          <path id="Path_127" data-name="Path 127" d="M8097.563,919.945l-1.661.578c-.059.02-.032.114.027.094l1.661-.578C8097.65,920.018,8097.623,919.924,8097.563,919.945Z" fill="#c4312d"/>
        </g>
        <g id="Group_159" data-name="Group 159">
          <path id="Path_128" data-name="Path 128" d="M8096.121,916.347c-1.482-.984-3.118-1.395-4.508-2.6a13.1,13.1,0,0,1-3.142-4.165c-.333-.687-1.514-.181-1.237.54,1.252,3.258,4.69,7.508,8.58,7.421A.644.644,0,0,0,8096.121,916.347Z" fill="#c4312d"/>
        </g>
        <g id="Group_160" data-name="Group 160">
          <path id="Path_129" data-name="Path 129" d="M8101.8,942.555c-1.482-.984-3.118-1.4-4.508-2.6a13.107,13.107,0,0,1-3.142-4.165c-.333-.687-1.514-.181-1.237.54,1.252,3.259,4.69,7.508,8.58,7.421A.644.644,0,0,0,8101.8,942.555Z" fill="#c4312d"/>
        </g>
        <g id="Group_161" data-name="Group 161">
          <path id="Path_130" data-name="Path 130" d="M8103.158,913.654c-.368,1.99-.627,4-1.076,5.97a28.036,28.036,0,0,0-1.156,5.282c-.015.526.643.582.9.232,2.1-2.863,2.565-7.869,2.482-11.343C8104.293,913.157,8103.281,912.987,8103.158,913.654Z" fill="#c4312d"/>
        </g>
        <g id="Group_162" data-name="Group 162">
          <path id="Path_131" data-name="Path 131" d="M8092.964,925.043a.657.657,0,0,0-1.314.017,15.862,15.862,0,0,1-.446,3.893,10.073,10.073,0,0,0-.6,2.774c.006.263.344.516.585.325C8093.113,930.528,8093.182,927.287,8092.964,925.043Z" fill="#c4312d"/>
        </g>
        <g id="Group_163" data-name="Group 163">
          <path id="Path_132" data-name="Path 132" d="M8111.043,920.667c-1.167,2.021-3.13,5.078-2.857,7.5.043.389.573.734.879.351a9.34,9.34,0,0,0,1.267-2.838,34.991,34.991,0,0,1,1.942-4.312A.708.708,0,0,0,8111.043,920.667Z" fill="#c4312d"/>
        </g>
        <g id="Group_164" data-name="Group 164">
          <path id="Path_133" data-name="Path 133" d="M8122.72,915.1c-.443,1.685-.894,3.368-1.319,5.059a14.968,14.968,0,0,0-.834,4.565.559.559,0,0,0,1.036.267,14.966,14.966,0,0,0,1.305-4.438c.378-1.7.731-3.412,1.092-5.118A.662.662,0,0,0,8122.72,915.1Z" fill="#c4312d"/>
        </g>
        <g id="Group_165" data-name="Group 165">
          <path id="Path_134" data-name="Path 134" d="M8114.842,910.612c-1.056-.389-2.185-.454-3.248-.841a11.228,11.228,0,0,1-3.6-2.152.624.624,0,0,0-.87.893c1.8,2.008,4.927,4,7.733,3.2A.575.575,0,0,0,8114.842,910.612Z" fill="#c4312d"/>
        </g>
        <g id="Group_166" data-name="Group 166">
          <path id="Path_135" data-name="Path 135" d="M8102.887,907.85a8.216,8.216,0,0,1-6.366-1.068c-.462-.263-1.088.3-.753.773a5.484,5.484,0,0,0,7.5,1.156A.476.476,0,0,0,8102.887,907.85Z" fill="#c4312d"/>
        </g>
        <g id="Group_167" data-name="Group 167">
          <path id="Path_136" data-name="Path 136" d="M8120.782,901.588c-1.77-.063-3.137.06-4.523-1.286-.473-.46-1.3.156-.921.73,1.2,1.836,3.958,3.029,5.815,1.418C8121.507,902.143,8121.187,901.6,8120.782,901.588Z" fill="#c4312d"/>
        </g>
        <g id="Group_168" data-name="Group 168">
          <path id="Path_137" data-name="Path 137" d="M8132.2,892.215c-2.022-.2-3.562.293-5.2-1.325-.592-.583-1.385.292-.88.9,1.374,1.666,4.645,3.148,6.445,1.271A.507.507,0,0,0,8132.2,892.215Z" fill="#c4312d"/>
        </g>
        <g id="Group_169" data-name="Group 169">
          <path id="Path_138" data-name="Path 138" d="M8131.428,925.3c-1.056.558-1.793,1.542-2.859,2.129a8.114,8.114,0,0,1-4.182,1.009c-.828-.015-.771,1.183.017,1.261,2.633.261,7.084-.789,7.813-3.809A.538.538,0,0,0,8131.428,925.3Z" fill="#c4312d"/>
        </g>
        <g id="Group_170" data-name="Group 170">
          <path id="Path_139" data-name="Path 139" d="M8132.17,906.5q-.876,2.275-1.753,4.549a11.13,11.13,0,0,0-1.174,4.066.506.506,0,0,0,.859.343,10.5,10.5,0,0,0,1.685-3.666c.582-1.644,1.153-3.293,1.729-4.94C8133.815,906,8132.486,905.683,8132.17,906.5Z" fill="#c4312d"/>
        </g>
        <g id="Group_171" data-name="Group 171">
          <path id="Path_140" data-name="Path 140" d="M8119.044,938.652q-.876,2.274-1.753,4.549a11.125,11.125,0,0,0-1.174,4.066.506.506,0,0,0,.859.343,10.5,10.5,0,0,0,1.685-3.666c.582-1.644,1.153-3.293,1.729-4.94C8120.689,938.15,8119.36,937.833,8119.044,938.652Z" fill="#c4312d"/>
        </g>
        <g id="Group_172" data-name="Group 172">
          <path id="Path_141" data-name="Path 141" d="M8140.36,917.057c-.785,2.272-2.221,4.954-2.185,7.381a.537.537,0,0,0,.994.255c1.423-1.955,1.8-5,2.47-7.3C8141.88,916.565,8140.634,916.263,8140.36,917.057Z" fill="#c4312d"/>
        </g>
        <g id="Group_173" data-name="Group 173">
          <path id="Path_142" data-name="Path 142" d="M8139.171,901.65a.676.676,0,0,0-1.352.017c-.01,2.1-.5,4.838.323,6.792a.463.463,0,0,0,.884-.011C8139.8,906.47,8139.236,903.746,8139.171,901.65Z" fill="#c4312d"/>
        </g>
        <g id="Group_174" data-name="Group 174">
          <path id="Path_143" data-name="Path 143" d="M8129.738,900.716c-1.487-.522-2.781-.586-4.057-1.678-.653-.559-1.561.348-.939.963,1.28,1.267,3.17,2.4,5.011,1.828A.582.582,0,0,0,8129.738,900.716Z" fill="#c4312d"/>
        </g>
        <g id="Group_175" data-name="Group 175">
          <path id="Path_144" data-name="Path 144" d="M8128.961,936.013c-1.487-.522-2.781-.586-4.057-1.679-.653-.559-1.561.348-.939.964,1.28,1.266,3.17,2.4,5.011,1.828A.583.583,0,0,0,8128.961,936.013Z" fill="#c4312d"/>
        </g>
        <g id="Group_176" data-name="Group 176">
          <path id="Path_145" data-name="Path 145" d="M8136.451,881.5a.584.584,0,0,0-1.056-.124c-.492.729-.729,1.445-1.593,1.86a2.8,2.8,0,0,1-2.7-.08.515.515,0,0,0-.61.813C8132.4,885.789,8137.126,884.615,8136.451,881.5Z" fill="#c4312d"/>
        </g>
        <g id="Group_177" data-name="Group 177">
          <path id="Path_146" data-name="Path 146" d="M8150.451,932.314c-1.137-1.861-4.113-2.309-6.1-2.449-.879-.062-.818,1.245.018,1.345a10.635,10.635,0,0,1,3.409.988,8.318,8.318,0,0,0,2.08.915A.545.545,0,0,0,8150.451,932.314Z" fill="#c4312d"/>
        </g>
        <g id="Group_178" data-name="Group 178">
          <path id="Path_147" data-name="Path 147" d="M8119.653,932.784c-1.795-.789-3.438-1.411-4.754-2.938-.448-.52-1.374.2-.951.753,1.341,1.75,3.178,3.217,5.478,3.072C8119.853,933.643,8120.115,932.988,8119.653,932.784Z" fill="#c4312d"/>
        </g>
        <g id="Group_179" data-name="Group 179">
          <path id="Path_148" data-name="Path 148" d="M8136.9,930.648c-.785,1.77-1.572,2.923-3.54,3.455a.561.561,0,0,0,.163,1.094c2.273.066,4.677-1.836,4.549-4.248C8138.046,930.379,8137.172,930.043,8136.9,930.648Z" fill="#c4312d"/>
        </g>
        <g id="Group_180" data-name="Group 180">
          <path id="Path_149" data-name="Path 149" d="M8136.624,915.205c-1.224,1.182-2.227,2.072-4.042,2.063-.785,0-.718,1.1.015,1.184a4.463,4.463,0,0,0,4.947-2.727C8137.725,915.182,8136.994,914.848,8136.624,915.205Z" fill="#c4312d"/>
        </g>
        <g id="Group_181" data-name="Group 181">
          <path id="Path_150" data-name="Path 150" d="M8114.582,936.082c-1.224,1.182-2.228,2.072-4.043,2.063-.784,0-.718,1.1.016,1.184a4.462,4.462,0,0,0,4.947-2.727C8115.682,936.059,8114.952,935.725,8114.582,936.082Z" fill="#c4312d"/>
        </g>
        <g id="Group_182" data-name="Group 182">
          <path id="Path_151" data-name="Path 151" d="M8126.493,910.438c-1.885-.272-3.431-.42-4.429-2.273a.657.657,0,0,0-1.188.519c.715,2.192,3.744,4.19,5.782,2.346A.357.357,0,0,0,8126.493,910.438Z" fill="#c4312d"/>
        </g>
        <g id="Group_183" data-name="Group 183">
          <path id="Path_152" data-name="Path 152" d="M8139.2,893.087c-.679,1-1.567,1.654-2.8,1.244-.594-.2-.995.763-.417,1.026,1.76.8,3.965.065,4.161-2.028C8140.2,892.783,8139.452,892.718,8139.2,893.087Z" fill="#c4312d"/>
        </g>
        <g id="Group_184" data-name="Group 184">
          <path id="Path_153" data-name="Path 153" d="M8141.062,938.459c-.679,1-1.566,1.655-2.8,1.245-.593-.2-1,.763-.416,1.025,1.76.8,3.964.065,4.16-2.028C8142.057,938.156,8141.312,938.091,8141.062,938.459Z" fill="#c4312d"/>
        </g>
        <g id="Group_185" data-name="Group 185">
          <path id="Path_154" data-name="Path 154" d="M8120.076,892.087c-.32-.668-1.475-.174-1.2.526.62,1.588.185,2.682,0,4.246-.058.5.645.691.951.379C8121.182,895.859,8120.841,893.684,8120.076,892.087Z" fill="#c4312d"/>
        </g>
        <g id="Group_186" data-name="Group 186">
          <path id="Path_155" data-name="Path 155" d="M8132.082,876.015a15.561,15.561,0,0,0-1.021,3.364c-.061.5.606.891.892.363a15.869,15.869,0,0,0,1.164-3.456C8133.3,875.612,8132.312,875.379,8132.082,876.015Z" fill="#c4312d"/>
        </g>
        <g id="Group_187" data-name="Group 187">
          <path id="Path_156" data-name="Path 156" d="M8151.635,936.952c-.131-.513-.782-.4-.943.012a26.02,26.02,0,0,1-2.173,4.862c-.3.473.341,1.15.811.79A5.78,5.78,0,0,0,8151.635,936.952Z" fill="#c4312d"/>
        </g>
        <g id="Group_188" data-name="Group 188">
          <path id="Path_157" data-name="Path 157" d="M8146.954,919.728a12.7,12.7,0,0,0-2.5,3.838.631.631,0,0,0,1.1.622,12.689,12.689,0,0,0,2-4.125A.355.355,0,0,0,8146.954,919.728Z" fill="#c4312d"/>
        </g>
        <g id="Group_189" data-name="Group 189">
          <path id="Path_158" data-name="Path 158" d="M8129.011,941.29a12.7,12.7,0,0,0-2.5,3.838.631.631,0,0,0,1.1.622,12.7,12.7,0,0,0,2-4.125A.355.355,0,0,0,8129.011,941.29Z" fill="#c4312d"/>
        </g>
        <g id="Group_190" data-name="Group 190">
          <path id="Path_159" data-name="Path 159" d="M8087.594,942.939a33.909,33.909,0,0,0-4.191,3.426c-.429.38.169,1.154.631.8a33.883,33.883,0,0,0,4.153-3.474A.483.483,0,0,0,8087.594,942.939Z" fill="#c4312d"/>
        </g>
        <g id="Group_193" data-name="Group 193">
          <g id="Group_192" data-name="Group 192" clip-path="url(#clip-path-2)">
            <g id="Group_191" data-name="Group 191" opacity="0.44">
              <path id="Path_160" data-name="Path 160" d="M8129.994,855.492c-2.935.549-5.826,1.042-8.71,1.505.109-2.9-1.253-5.742-2.049-8.545-1.056-3.719-1.7-7.7-3.26-11.275a46.752,46.752,0,0,0,3.9-4.428c.779-1.029-.925-2.46-1.994-1.658-10.33,7.751-22.25,24.064-37.536,20.694a.877.877,0,0,0-.61.1c-2.776-.827-5.564-1.627-8.215-2.625-5.881-2.214-11.4-5.071-17.24-7.352-.564-.22-1.142.276-1.006.735a.55.55,0,0,0-.207.721c2.364,3.927,7.877,6.6,12.069,8.75a44.354,44.354,0,0,0,11.56,4.384c.8.229,1.608.432,2.417.638,16.534,5.54,34.7,6.642,51.614.466C8132.218,857.054,8131.527,855.205,8129.994,855.492Z" fill="#e54945"/>
            </g>
          </g>
        </g>
        <g id="Group_194" data-name="Group 194">
          <path id="Path_162" data-name="Path 162" d="M8032.184,772.4c-3.989,1.357,11.386,61.427,11.386,61.427s17.991,19.358,45.807,22.208c0,0,23.1-8.155,35.9-36.476,0,0-5.09-50.934-7.595-52.884-2.573-2,2.588,43.79,1.312,46.5s-11.6,23.539-31.655,30.345c0,0-27.585-1.676-41.588-20.859Z" fill="#49477c"/>
        </g>
        <g id="Group_199" data-name="Group 199">
          <g id="Group_195" data-name="Group 195">
            <path id="Path_163" data-name="Path 163" d="M8088.667,782.483s3.9,6.248,10.013,4.972c5.868-1.224,7.948-4.962,8.135-8.82C8106.815,778.635,8092.656,778.633,8088.667,782.483Z" fill="#fbada1"/>
          </g>
          <g id="Group_196" data-name="Group 196">
            <path id="Path_164" data-name="Path 164" d="M8088.667,782.483c.817-.611,1.6-4.706,8.592-5.925a13.709,13.709,0,0,1,10.111,2.471s-7.392-.085-11.363.816A46.531,46.531,0,0,0,8088.667,782.483Z" fill="#49477c"/>
          </g>
          <g id="Group_197" data-name="Group 197">
            <path id="Path_165" data-name="Path 165" d="M8093.667,780.4s-.929,7.065,5.3,5.572c3.139-.753,4.292-4.142,2.675-7.475Z" fill="#49477c"/>
          </g>
          <g id="Group_198" data-name="Group 198" opacity="0.6">
            <path id="Path_166" data-name="Path 166" d="M8096.75,782.883c.1.73-.965,1.481-2.383,1.678s-2.648-.235-2.75-.965.966-1.481,2.383-1.678S8096.649,782.153,8096.75,782.883Z" fill="#fff"/>
          </g>
        </g>
        <g id="Group_204" data-name="Group 204">
          <g id="Group_200" data-name="Group 200">
            <path id="Path_167" data-name="Path 167" d="M8066.1,785.887s-1.324,6.949-7.54,7.587c-5.962.613-8.532-2.474-9.864-5.617C8048.7,787.857,8059.443,782.768,8066.1,785.887Z" fill="#fbada1"/>
          </g>
          <g id="Group_201" data-name="Group 201">
            <path id="Path_168" data-name="Path 168" d="M8066.688,785.993c-.965-.331-2.972-3.986-10-2.995a13.7,13.7,0,0,0-8.86,5.461s7.478-3.061,11.533-3.425A23.229,23.229,0,0,1,8066.688,785.993Z" fill="#49477c"/>
          </g>
          <g id="Group_202" data-name="Group 202">
            <path id="Path_169" data-name="Path 169" d="M8061.678,783.683s3.157,8.012-3.5,8.794c-3.2.376-5.589-2.832-5.078-6.532Z" fill="#49477c"/>
          </g>
          <g id="Group_203" data-name="Group 203" opacity="0.6">
            <path id="Path_170" data-name="Path 170" d="M8051.593,789.621c.067.734,1.276,1.223,2.7,1.093s2.527-.829,2.46-1.563-1.276-1.224-2.7-1.094S8051.526,788.887,8051.593,789.621Z" fill="#fff"/>
          </g>
        </g>
      </g>
    </g>
  </g>
</svg>
