<svg xmlns="http://www.w3.org/2000/svg" width="37.25" height="9.312" viewBox="0 0 37.25 9.312">
  <g id="Group_442" data-name="Group 442" transform="translate(-2545.268 -1267.546)">
    <g id="Group_439" data-name="Group 439">
      <path id="Path_448" data-name="Path 448" d="M2577.861,1276.858a4.656,4.656,0,1,1,4.657-4.656A4.661,4.661,0,0,1,2577.861,1276.858Zm0-7.76a3.1,3.1,0,1,0,3.1,3.1A3.107,3.107,0,0,0,2577.861,1269.1Z" fill="#ea7536"/>
    </g>
    <g id="Group_440" data-name="Group 440">
      <path id="Path_449" data-name="Path 449" d="M2549.924,1276.858a4.656,4.656,0,1,1,4.656-4.656A4.66,4.66,0,0,1,2549.924,1276.858Zm0-7.76a3.1,3.1,0,1,0,3.1,3.1A3.107,3.107,0,0,0,2549.924,1269.1Z" fill="#ea7536"/>
    </g>
    <g id="Group_441" data-name="Group 441">
      <path id="Path_450" data-name="Path 450" d="M2563.893,1276.858a4.656,4.656,0,1,1,4.656-4.656A4.661,4.661,0,0,1,2563.893,1276.858Zm0-7.76a3.1,3.1,0,1,0,3.1,3.1A3.108,3.108,0,0,0,2563.893,1269.1Z" fill="#ea7536"/>
    </g>
  </g>
</svg>
