<svg xmlns="http://www.w3.org/2000/svg" width="46.994" height="37.204" viewBox="0 0 46.994 37.204">
  <g id="Group_220" data-name="Group 220" transform="translate(-6861.607 -416.92)">
    <g id="Group_214" data-name="Group 214">
      <path id="Path_178" data-name="Path 178" d="M6907.622,422.8h-31.329a.979.979,0,0,1,0-1.958h31.329a.979.979,0,0,1,0,1.958Z" fill="#ea7536"/>
    </g>
    <g id="Group_215" data-name="Group 215">
      <path id="Path_179" data-name="Path 179" d="M6866.5,426.711a4.9,4.9,0,1,1,4.9-4.895A4.9,4.9,0,0,1,6866.5,426.711Zm0-7.833a2.938,2.938,0,1,0,2.937,2.938A2.941,2.941,0,0,0,6866.5,418.878Z" fill="#ea7536"/>
    </g>
    <g id="Group_216" data-name="Group 216">
      <path id="Path_180" data-name="Path 180" d="M6907.622,436.5h-31.329a.979.979,0,0,1,0-1.958h31.329a.979.979,0,0,1,0,1.958Z" fill="#ea7536"/>
    </g>
    <g id="Group_217" data-name="Group 217">
      <path id="Path_181" data-name="Path 181" d="M6866.5,440.417a4.895,4.895,0,1,1,4.9-4.895A4.9,4.9,0,0,1,6866.5,440.417Zm0-7.832a2.937,2.937,0,1,0,2.937,2.937A2.941,2.941,0,0,0,6866.5,432.585Z" fill="#ea7536"/>
    </g>
    <g id="Group_218" data-name="Group 218">
      <path id="Path_182" data-name="Path 182" d="M6907.622,450.208h-31.329a.979.979,0,0,1,0-1.958h31.329a.979.979,0,0,1,0,1.958Z" fill="#ea7536"/>
    </g>
    <g id="Group_219" data-name="Group 219">
      <path id="Path_183" data-name="Path 183" d="M6866.5,454.124a4.895,4.895,0,1,1,4.9-4.895A4.9,4.9,0,0,1,6866.5,454.124Zm0-7.832a2.937,2.937,0,1,0,2.937,2.937A2.94,2.94,0,0,0,6866.5,446.292Z" fill="#ea7536"/>
    </g>
  </g>
</svg>
