<svg xmlns="http://www.w3.org/2000/svg" width="34.498" height="37.547" viewBox="0 0 34.498 37.547">
  <g id="Group_452" data-name="Group 452" transform="translate(-2570.556 -56.778)">
    <g id="Group_449" data-name="Group 449">
      <g id="Group_447" data-name="Group 447">
        <path id="Path_453" data-name="Path 453" d="M2604.918,92.183a17.246,17.246,0,0,0-34.226,0,16.312,16.312,0,0,0-.136,2.142h34.5A16.1,16.1,0,0,0,2604.918,92.183Zm-33.069.972c1.133-8.294,7.856-14.687,15.952-14.687s14.819,6.393,15.952,14.687Z" fill="#ea7536"/>
      </g>
      <g id="Group_448" data-name="Group 448">
        <path id="Path_454" data-name="Path 454" d="M2587.8,60.46a7.664,7.664,0,1,0,7.664,7.664A7.673,7.673,0,0,0,2587.8,60.46Zm0,13.893a6.229,6.229,0,1,1,6.23-6.229A6.235,6.235,0,0,1,2587.8,74.353Z" fill="#ea7536"/>
      </g>
    </g>
    <g id="Group_450" data-name="Group 450">
      <path id="Path_455" data-name="Path 455" d="M2601.372,64.143a.525.525,0,0,1-.526-.526V57.3a.526.526,0,1,1,1.052,0v6.313A.526.526,0,0,1,2601.372,64.143Z" fill="#ea7536"/>
    </g>
    <g id="Group_451" data-name="Group 451">
      <path id="Path_456" data-name="Path 456" d="M2604.528,60.986h-6.313a.526.526,0,1,1,0-1.052h6.313a.526.526,0,0,1,0,1.052Z" fill="#ea7536"/>
    </g>
  </g>
</svg>
