<svg xmlns="http://www.w3.org/2000/svg" width="34.599" height="33.964" viewBox="0 0 34.599 33.964">
  <g id="Group_445" data-name="Group 445" transform="translate(-2366.434 -1255.22)">
    <g id="Group_443" data-name="Group 443">
      <path id="Path_451" data-name="Path 451" d="M2400.9,1287.036a17.3,17.3,0,0,0-34.327,0,16.194,16.194,0,0,0-.136,2.148h34.6A16.361,16.361,0,0,0,2400.9,1287.036Zm-33.167.975c1.136-8.319,7.879-14.73,16-14.73s14.863,6.411,16,14.73Z" fill="#ea7536"/>
    </g>
    <g id="Group_444" data-name="Group 444">
      <path id="Path_452" data-name="Path 452" d="M2383.729,1255.22a7.686,7.686,0,1,0,7.687,7.686A7.7,7.7,0,0,0,2383.729,1255.22Zm0,13.934a6.247,6.247,0,1,1,6.248-6.248A6.253,6.253,0,0,1,2383.729,1269.154Z" fill="#ea7536"/>
    </g>
  </g>
</svg>
