<svg xmlns="http://www.w3.org/2000/svg" width="42.151" height="42.151" viewBox="0 0 42.151 42.151">
  <g id="Group_12" data-name="Group 12" transform="translate(-10758.423 -655.426)">
    <g id="Group_9" data-name="Group 9">
      <path id="Path_8" data-name="Path 8" d="M10779.5,697.577a21.076,21.076,0,1,1,21.076-21.076A21.1,21.1,0,0,1,10779.5,697.577Zm0-40.4a19.319,19.319,0,1,0,19.32,19.319A19.341,19.341,0,0,0,10779.5,657.182Z" fill="#ea7536"/>
    </g>
    <g id="Group_10" data-name="Group 10">
      <path id="Path_9" data-name="Path 9" d="M10779.5,690.552a1.757,1.757,0,0,1-1.756-1.757V669.476a1.756,1.756,0,0,1,3.513,0v19.319A1.757,1.757,0,0,1,10779.5,690.552Z" fill="#ea7536"/>
    </g>
    <g id="Group_11" data-name="Group 11">
      <circle id="Ellipse_1" data-name="Ellipse 1" cx="1.756" cy="1.756" r="1.756" transform="translate(10777.742 660.695)" fill="#ea7536"/>
    </g>
  </g>
</svg>
