<svg xmlns="http://www.w3.org/2000/svg" width="47.259" height="47.259" viewBox="0 0 47.259 47.259">
  <g id="Group_7" data-name="Group 7" transform="translate(-10753.315 -386.472)">
    <g id="Group_5" data-name="Group 5">
      <path id="Path_5" data-name="Path 5" d="M10779,433.731h-4.109a3.086,3.086,0,0,1-3.082-3.082v-2.031a.983.983,0,0,0-.632-.947,18.039,18.039,0,0,1-2.561-1.068.992.992,0,0,0-1.127.221l-1.434,1.433a3.087,3.087,0,0,1-4.357,0l-2.91-2.908a3.08,3.08,0,0,1,0-4.358l1.435-1.437a.985.985,0,0,0,.221-1.127,17.992,17.992,0,0,1-1.065-2.555.987.987,0,0,0-.949-.634h-2.03a3.085,3.085,0,0,1-3.082-3.082v-4.109a3.085,3.085,0,0,1,3.082-3.082h2.03a.983.983,0,0,0,.947-.632,18.206,18.206,0,0,1,1.067-2.561.984.984,0,0,0-.219-1.122l-1.437-1.438a3.081,3.081,0,0,1,0-4.359l2.91-2.909a3.087,3.087,0,0,1,4.357,0l1.436,1.437a.983.983,0,0,0,1.125.218,17.984,17.984,0,0,1,2.559-1.065.988.988,0,0,0,.634-.949v-2.031a3.086,3.086,0,0,1,3.082-3.082H10779a3.085,3.085,0,0,1,3.082,3.082v2.031a.981.981,0,0,0,.63.947,18.213,18.213,0,0,1,2.562,1.067.984.984,0,0,0,1.128-.22l1.432-1.435a3.088,3.088,0,0,1,4.358,0l2.909,2.909a3.081,3.081,0,0,1,0,4.359l-1.435,1.436a.982.982,0,0,0-.218,1.126,18.106,18.106,0,0,1,1.063,2.556.991.991,0,0,0,.951.635h2.031a3.085,3.085,0,0,1,3.082,3.082v4.109a3.085,3.085,0,0,1-3.082,3.082h-2.031a.991.991,0,0,0-.951.634,18.241,18.241,0,0,1-1.062,2.555.982.982,0,0,0,.216,1.125l1.437,1.439a3.08,3.08,0,0,1,0,4.358l-2.909,2.908a3.088,3.088,0,0,1-4.358,0l-1.434-1.435a.991.991,0,0,0-1.126-.219,17.931,17.931,0,0,1-2.56,1.066.983.983,0,0,0-.632.949v2.031A3.085,3.085,0,0,1,10779,433.731Zm-10.781-9.279a2.936,2.936,0,0,1,1.332.321,15.966,15.966,0,0,0,2.267.946,3.015,3.015,0,0,1,2.046,2.9v2.031a1.029,1.029,0,0,0,1.027,1.027H10779a1.029,1.029,0,0,0,1.028-1.027v-2.031a3.018,3.018,0,0,1,2.046-2.9,15.787,15.787,0,0,0,2.264-.944,3.031,3.031,0,0,1,3.511.594l1.438,1.437a1.028,1.028,0,0,0,1.453,0l2.909-2.907a1.028,1.028,0,0,0,0-1.453l-1.435-1.437a3.015,3.015,0,0,1-.6-3.513,16.191,16.191,0,0,0,.942-2.266,3.025,3.025,0,0,1,2.9-2.044h2.031a1.029,1.029,0,0,0,1.026-1.028v-4.109a1.029,1.029,0,0,0-1.026-1.028h-2.031a3.024,3.024,0,0,1-2.9-2.046,16.067,16.067,0,0,0-.942-2.264,3.018,3.018,0,0,1,.6-3.515l1.433-1.435a1.028,1.028,0,0,0,0-1.453l-2.909-2.909a1.033,1.033,0,0,0-1.453,0l-1.436,1.436a3.034,3.034,0,0,1-3.513.6,16.068,16.068,0,0,0-2.266-.945,3.015,3.015,0,0,1-2.044-2.9v-2.031a1.029,1.029,0,0,0-1.028-1.027h-4.109a1.029,1.029,0,0,0-1.027,1.027v2.031a3.019,3.019,0,0,1-2.048,2.9,15.91,15.91,0,0,0-2.265.943,3.03,3.03,0,0,1-3.511-.594l-1.437-1.438a1.032,1.032,0,0,0-1.452,0l-2.909,2.909a1.028,1.028,0,0,0,0,1.453l1.435,1.437a3.026,3.026,0,0,1,.6,3.511,15.7,15.7,0,0,0-.947,2.266,3.016,3.016,0,0,1-2.9,2.046h-2.03a1.029,1.029,0,0,0-1.027,1.028v4.109a1.029,1.029,0,0,0,1.027,1.028h2.03a3.019,3.019,0,0,1,2.9,2.048,15.819,15.819,0,0,0,.943,2.262,3.02,3.02,0,0,1-.6,3.515l-1.433,1.435a1.028,1.028,0,0,0,0,1.453l2.909,2.907a1.027,1.027,0,0,0,1.452,0l1.436-1.435A3.094,3.094,0,0,1,10768.218,424.452Z" fill="#ea7536"/>
    </g>
    <g id="Group_6" data-name="Group 6">
      <path id="Path_6" data-name="Path 6" d="M10776.945,419.348a9.246,9.246,0,1,1,9.246-9.247A9.257,9.257,0,0,1,10776.945,419.348Zm0-16.438a7.191,7.191,0,1,0,7.19,7.191A7.2,7.2,0,0,0,10776.945,402.91Z" fill="#ea7536"/>
    </g>
  </g>
</svg>
