<svg xmlns="http://www.w3.org/2000/svg" width="232.9" height="206.98" viewBox="0 0 232.9 206.98">
  <g id="Group_375" data-name="Group 375" transform="translate(-3254.875 -212.83)">
    <g id="Group_345" data-name="Group 345">
      <path id="Path_316" data-name="Path 316" d="M3349.952,263.033c4.76,3.1,9.245,7.032,13.832,10.711,9.6,5.212,21.038,11.345,26.252,13.842,9.834,4.71,22.684,6.371,22.684,6.371l10.146.821a14.455,14.455,0,0,0,.595-4.23c0-18.288-.034-36.575.039-54.862.008-1.964-.384-2.642-2.5-2.583-5.826.162-11.661.009-17.49.088-1.388.019-1.765-.4-1.73-1.741.084-3.245.053-6.494.016-9.741-.058-5.047-3.272-8.571-8.323-8.747-5.16-.181-10.336-.175-15.5.01-4.75.171-7.961,3.782-7.989,8.58-.019,3.321-.049,6.643.01,9.963.022,1.27-.231,1.789-1.7,1.758-6.048-.126-12.1-.032-18.149-.154-1.639-.033-1.911.568-1.9,2.026.04,8.855-.009,17.711-.028,26.565C3348.793,262.152,3349.344,262.636,3349.952,263.033Zm25.489-42.058a1.914,1.914,0,0,1,2.209-2.138c2.731.043,5.463.012,8.194.012s5.464.022,8.2-.009c1.455-.016,2.2.6,2.215,2.1q.044,5.532.128,11.064c.011.78-.166,1.168-1.116,1.172-6.215.028-12.428.259-18.644,0-.818-.034-1.213-.224-1.206-1.12C3375.446,228.357,3375.409,224.666,3375.441,220.975Z" fill="#ea7536"/>
    </g>
    <g id="Group_346" data-name="Group 346">
      <path id="Path_317" data-name="Path 317" d="M3275.636,364.993c.821-3.664,1.258-7.274-2.953-7.274-2.57,0-4.429,1.04-5.031,3.829-.656,3.116,1.094,4.32,3.172,5.851,2.133,1.586,6.18,4.648,7.82,6.726,2.078,2.57,2.406,5.031,1.641,8.586-1.641,7.765-7.656,11.812-15.148,11.812-9.187,0-11.374-5.141-9.789-12.469l.6-3.007h7.656l-.492,2.406c-1.039,3.992-.438,6.89,3.335,6.89,3.227,0,5.141-1.695,5.8-4.812a5.012,5.012,0,0,0-1.914-5.414c-3.336-3.117-7.82-5.359-10.062-9.46a10.194,10.194,0,0,1-.656-6.289c1.476-7,6.234-10.828,14.327-10.828,12.2,0,9.9,9.406,9.078,13.453Z"/>
    </g>
    <g id="Group_347" data-name="Group 347">
      <path id="Path_318" data-name="Path 318" d="M3297.239,365.868h.11a8.869,8.869,0,0,1,7.6-3.992c2.625-.055,5.906,1.093,5.8,3.992a9.193,9.193,0,0,1,7.984-3.992c5.25,0,6.836,3.281,6.179,6.562l-5.359,25.1h-7.109l4.43-20.835c.6-2.789.874-5.523-2.243-5.359s-4.1,2.3-4.867,5.906l-4.32,20.288h-7.109l4.484-21.218c.6-2.734.875-5.031-2.406-4.976-3.336.055-4.046,2.516-4.757,5.906l-4.32,20.288h-7.11l6.563-30.842h7.109Z"/>
    </g>
    <g id="Group_348" data-name="Group 348">
      <path id="Path_319" data-name="Path 319" d="M3340.5,393.538a5.777,5.777,0,0,1,.219-3.172h-.11c-2.187,2.571-4.648,3.993-7.054,3.993-5.742,0-7.656-2.9-6.289-9.242,1.476-7.054,6.836-8.75,12.906-11.047,3.281-1.257,4.648-2.624,4.593-5.14-.055-1.367-1.093-1.586-3.008-1.586-3.226,0-4.155,1.7-4.7,4.484h-6.782c1.2-5.851,3.993-9.952,12.906-9.952,9.68,0,9.188,5.085,8.258,9.132l-3.883,18.21a16.628,16.628,0,0,0-.328,4.32Zm2.461-16.241c-2.024,1.2-4.375,2.406-6.563,3.937a5.76,5.76,0,0,0-2.023,3.719c-.492,2.351-.109,3.937,2.515,3.937,4.211,0,4.594-5.3,5.36-8.257Z"/>
    </g>
    <g id="Group_349" data-name="Group 349">
      <path id="Path_320" data-name="Path 320" d="M3366.039,368.164h.109a12.92,12.92,0,0,1,3.718-4.374,7.232,7.232,0,0,1,4.758-1.641l-1.8,8.421c-3.827-.382-7.054.6-8.148,5.141l-3.773,17.827h-7.109l6.562-30.842h6.836Z"/>
    </g>
    <g id="Group_350" data-name="Group 350">
      <path id="Path_321" data-name="Path 321" d="M3382.5,393.648c-4.32.492-10.336.875-9.133-4.867l4.485-20.89h-2.9l1.093-5.195h2.844l1.8-8.476h7.164l-1.8,8.476h3.008l-1.094,5.195h-3.007l-4.1,19.14c-.11,1.312,1.913,1.148,2.788,1.039Z"/>
    </g>
    <g id="Group_351" data-name="Group 351">
      <path id="Path_322" data-name="Path 322" d="M3416.735,373.414l.766-3.445c.218-1.7-.383-2.625-1.914-2.625-2.735,0-3.391,3.117-4.157,6.89l-1.531,7.274c-1.476,6.015-.984,7.109,1.094,7.382,2.187-.055,2.68-2.078,3.445-4.539l.6-2.843h7.109l-.6,2.843c-1.367,6.453-4.812,10.008-11.867,10.008-6.288,0-9.186-3.336-7.164-11.539l2.133-10.007c1.75-8.641,6.508-10.937,11.922-10.937,7.164,0,8.859,4.484,7.82,9.077l-.547,2.461Z" fill="#ea7536"/>
    </g>
    <g id="Group_352" data-name="Group 352">
      <path id="Path_323" data-name="Path 323" d="M3439.211,393.538a5.8,5.8,0,0,1,.219-3.172h-.109c-2.188,2.571-4.649,3.993-7.055,3.993-5.742,0-7.656-2.9-6.289-9.242,1.477-7.054,6.836-8.75,12.906-11.047,3.281-1.257,4.648-2.624,4.593-5.14-.054-1.367-1.093-1.586-3.007-1.586-3.227,0-4.156,1.7-4.7,4.484h-6.781c1.2-5.851,3.992-9.952,12.906-9.952,9.679,0,9.187,5.085,8.257,9.132l-3.883,18.21a16.682,16.682,0,0,0-.328,4.32Zm2.461-16.241c-2.023,1.2-4.375,2.406-6.562,3.937a5.767,5.767,0,0,0-2.024,3.719c-.492,2.351-.109,3.937,2.516,3.937,4.211,0,4.594-5.3,5.359-8.257Z" fill="#ea7536"/>
    </g>
    <g id="Group_353" data-name="Group 353">
      <path id="Path_324" data-name="Path 324" d="M3464.752,368.164h.109a12.92,12.92,0,0,1,3.718-4.374,7.232,7.232,0,0,1,4.758-1.641l-1.8,8.421c-3.829-.382-7.055.6-8.148,5.141l-3.774,17.827H3452.5l6.563-30.842h6.835Z" fill="#ea7536"/>
    </g>
    <g id="Group_354" data-name="Group 354">
      <path id="Path_325" data-name="Path 325" d="M3481.213,393.648c-4.32.492-10.336.875-9.133-4.867l4.485-20.89h-2.9l1.094-5.195h2.844l1.8-8.476h7.164l-1.8,8.476h3.008l-1.093,5.195h-3.008l-4.1,19.14c-.109,1.312,1.914,1.148,2.789,1.039Z" fill="#ea7536"/>
    </g>
    <g id="Group_364" data-name="Group 364">
      <g id="Group_355" data-name="Group 355">
        <path id="Path_326" data-name="Path 326" d="M3408.4,409.019a2.4,2.4,0,0,0-.722-1.977,4.137,4.137,0,0,0-4.193-.023,1.859,1.859,0,0,0-.838,1.656,1.582,1.582,0,0,0,.365,1.053,3.2,3.2,0,0,0,1.5.774l1.178.356a7.372,7.372,0,0,1,2.233,1.006,2.117,2.117,0,0,1,.744,1.811,3.478,3.478,0,0,1-.961,2.3,4.215,4.215,0,0,1-3.318,1.107,4.52,4.52,0,0,1-3.047-.965,3.607,3.607,0,0,1-1.124-2.895h1.055a2.845,2.845,0,0,0,.806,2.259,3.543,3.543,0,0,0,2.388.7,4.023,4.023,0,0,0,2.186-.6,1.957,1.957,0,0,0,.961-1.765,1.477,1.477,0,0,0-.659-1.4,10.337,10.337,0,0,0-2.085-.8l-1.086-.325a3.4,3.4,0,0,1-1.612-.913,2.339,2.339,0,0,1-.574-1.657,2.687,2.687,0,0,1,1.155-2.353,4.717,4.717,0,0,1,2.768-.8,4.613,4.613,0,0,1,2.876.814,3.124,3.124,0,0,1,1.062,2.643Z"/>
      </g>
      <g id="Group_356" data-name="Group 356">
        <path id="Path_327" data-name="Path 327" d="M3412.02,405.793H3413l-.976,4.528a3.731,3.731,0,0,1,1.217-1.21,3.009,3.009,0,0,1,1.62-.48,2.758,2.758,0,0,1,1.767.519,1.965,1.965,0,0,1,.652,1.636,4.827,4.827,0,0,1-.125.946l-1.094,5.133-.983,0,1.116-5.162a3.366,3.366,0,0,0,.109-.807,1.27,1.27,0,0,0-.473-1.093,1.971,1.971,0,0,0-1.2-.349,2.645,2.645,0,0,0-1.946.892,4.852,4.852,0,0,0-1.185,2.411l-.886,4.108h-.983Z"/>
      </g>
      <g id="Group_357" data-name="Group 357">
        <path id="Path_328" data-name="Path 328" d="M3425.98,411.758a6.125,6.125,0,0,1-1.163,3.753,3.832,3.832,0,0,1-3.271,1.57,3.066,3.066,0,0,1-2.357-.9,3.421,3.421,0,0,1-.837-2.43,5.6,5.6,0,0,1,1.21-3.605,3.943,3.943,0,0,1,3.255-1.517,3.168,3.168,0,0,1,2.3.836A3.028,3.028,0,0,1,3425.98,411.758Zm-.976.2a2.648,2.648,0,0,0-.6-1.825,2.219,2.219,0,0,0-1.752-.681,2.8,2.8,0,0,0-2.411,1.315,4.984,4.984,0,0,0-.907,2.893,2.787,2.787,0,0,0,.612,1.895,2.249,2.249,0,0,0,1.791.7,2.723,2.723,0,0,0,2.38-1.369A5.28,5.28,0,0,0,3425,411.959Z"/>
      </g>
      <g id="Group_358" data-name="Group 358">
        <path id="Path_329" data-name="Path 329" d="M3428.4,408.864h.884l-.31,1.442a4.033,4.033,0,0,1,1.255-1.256,3.229,3.229,0,0,1,1.69-.418,2.853,2.853,0,0,1,2.264.882,3.481,3.481,0,0,1,.775,2.383,5.762,5.762,0,0,1-1.226,3.575,3.792,3.792,0,0,1-3.151,1.609,3.146,3.146,0,0,1-1.715-.438,1.9,1.9,0,0,1-.845-1.377l-1.01,4.542-.968,0Zm-.062,5.091a2.341,2.341,0,0,0,.589,1.686,2.159,2.159,0,0,0,1.644.619,2.855,2.855,0,0,0,2.488-1.385,5.374,5.374,0,0,0,.922-3.039,2.615,2.615,0,0,0-.543-1.733,1.981,1.981,0,0,0-1.612-.65,2.925,2.925,0,0,0-2.535,1.416A5.407,5.407,0,0,0,3428.337,413.955Z"/>
      </g>
      <g id="Group_359" data-name="Group 359">
        <path id="Path_330" data-name="Path 330" d="M3448.523,411.981a8.109,8.109,0,0,1-.5,1.538,6.746,6.746,0,0,1-.827,1.366l1.3,1.979-1.092-.005-.84-1.3a4.056,4.056,0,0,1-3.213,1.523,3.331,3.331,0,0,1-2.258-.743,2.611,2.611,0,0,1-.861-2.09,2.574,2.574,0,0,1,.837-2.028,10.3,10.3,0,0,1,2.419-1.487,10.624,10.624,0,0,1-.8-1.346,2.826,2.826,0,0,1-.256-1.224,2.148,2.148,0,0,1,.767-1.71,3.039,3.039,0,0,1,3.612-.124,1.742,1.742,0,0,1,.721,1.481,2.306,2.306,0,0,1-.736,1.76,10.513,10.513,0,0,1-2.085,1.434l1.989,3.082a3.539,3.539,0,0,0,.509-.937,7.366,7.366,0,0,0,.339-1.168Zm-4.6-.563a9.128,9.128,0,0,0-2,1.238,2.077,2.077,0,0,0-.715,1.655,1.826,1.826,0,0,0,.6,1.376,2.042,2.042,0,0,0,1.457.573,3.578,3.578,0,0,0,2.836-1.41Zm2.63-3.422a1.282,1.282,0,0,0-.411-1.023,1.585,1.585,0,0,0-1.078-.357,1.682,1.682,0,0,0-1.17.442,1.466,1.466,0,0,0-.489,1.14,2.1,2.1,0,0,0,.2.906q.2.428.667,1.249a10.835,10.835,0,0,0,1.674-1.093A1.578,1.578,0,0,0,3446.554,408Z"/>
      </g>
      <g id="Group_360" data-name="Group 360">
        <path id="Path_331" data-name="Path 331" d="M3462.1,409.019a2.4,2.4,0,0,0-.721-1.977,4.14,4.14,0,0,0-4.194-.023,1.858,1.858,0,0,0-.837,1.656,1.582,1.582,0,0,0,.365,1.053,3.193,3.193,0,0,0,1.5.774l1.178.356a7.387,7.387,0,0,1,2.233,1.006,2.117,2.117,0,0,1,.744,1.811,3.482,3.482,0,0,1-.961,2.3,4.217,4.217,0,0,1-3.318,1.107,4.517,4.517,0,0,1-3.047-.965,3.607,3.607,0,0,1-1.124-2.895h1.055a2.845,2.845,0,0,0,.806,2.259,3.541,3.541,0,0,0,2.387.7,4.025,4.025,0,0,0,2.187-.6,1.957,1.957,0,0,0,.961-1.765,1.477,1.477,0,0,0-.659-1.4,10.327,10.327,0,0,0-2.086-.8l-1.085-.325a3.394,3.394,0,0,1-1.612-.913,2.339,2.339,0,0,1-.574-1.657,2.687,2.687,0,0,1,1.155-2.353,4.717,4.717,0,0,1,2.768-.8,4.613,4.613,0,0,1,2.876.814,3.124,3.124,0,0,1,1.062,2.643Z"/>
      </g>
      <g id="Group_361" data-name="Group 361">
        <path id="Path_332" data-name="Path 332" d="M3465.726,405.793h.983l-.977,4.528a3.744,3.744,0,0,1,1.217-1.21,3.009,3.009,0,0,1,1.621-.48,2.759,2.759,0,0,1,1.767.519,1.967,1.967,0,0,1,.651,1.636,4.888,4.888,0,0,1-.124.946l-1.095,5.133-.983,0,1.117-5.162a3.362,3.362,0,0,0,.108-.807,1.27,1.27,0,0,0-.473-1.093,1.971,1.971,0,0,0-1.2-.349,2.643,2.643,0,0,0-1.945.892,4.844,4.844,0,0,0-1.185,2.411l-.886,4.108h-.983Z"/>
      </g>
      <g id="Group_362" data-name="Group 362">
        <path id="Path_333" data-name="Path 333" d="M3473.389,408.864h.983l-1.725,8h-.983Zm.662-3.071h.983l-.353,1.564-.983,0Z"/>
      </g>
      <g id="Group_363" data-name="Group 363">
        <path id="Path_334" data-name="Path 334" d="M3476.352,408.864h.884l-.31,1.442a4.035,4.035,0,0,1,1.255-1.256,3.23,3.23,0,0,1,1.69-.418,2.853,2.853,0,0,1,2.264.882,3.481,3.481,0,0,1,.775,2.383,5.763,5.763,0,0,1-1.226,3.575,3.792,3.792,0,0,1-3.15,1.609,3.147,3.147,0,0,1-1.716-.438,1.9,1.9,0,0,1-.845-1.377l-1.01,4.542-.968,0Zm-.062,5.091a2.342,2.342,0,0,0,.589,1.686,2.16,2.16,0,0,0,1.644.619,2.853,2.853,0,0,0,2.488-1.385,5.374,5.374,0,0,0,.922-3.039,2.616,2.616,0,0,0-.542-1.733,1.984,1.984,0,0,0-1.613-.65,2.925,2.925,0,0,0-2.535,1.416A5.414,5.414,0,0,0,3476.29,413.955Z"/>
      </g>
    </g>
    <g id="Group_365" data-name="Group 365">
      <line id="Line_3" data-name="Line 3" x2="227.698" transform="translate(3254.935 402.77)"/>
      <rect id="Rectangle_37" data-name="Rectangle 37" width="227.698" height="0.561" transform="translate(3254.935 402.489)"/>
    </g>
    <g id="Group_366" data-name="Group 366">
      <path id="Path_335" data-name="Path 335" d="M3435.444,281.806c-.851,5.117.027,15.8-3.244,24.006-4.823,11.668-13.13,19.5-25.426,22.638a70.544,70.544,0,0,1-46.925-3.756c-12.372-5.432-18.865-15.288-20.758-28.492-.934-6.515-1.1-13.126-2.507-19.576-.237-1.085-.516-2.16-.78-3.256a.887.887,0,0,0-.143.1c.021.056.085.106.086.159.172,7.275.2,14.553.31,21.828.242,16.644,10.109,29.888,25.864,35.85a74.944,74.944,0,0,0,36.728,3.979c11.757-1.52,22.09-6,29.417-15.827C3434.418,310.933,3437.415,296.571,3435.444,281.806Z"/>
    </g>
    <g id="Group_367" data-name="Group 367">
      <path id="Path_336" data-name="Path 336" d="M3396.445,347.848a4.215,4.215,0,0,0,4.27-4.1c-.026-2.693-1.924-4.736-4.326-4.659a4.6,4.6,0,0,0-4.418,4.626A4.312,4.312,0,0,0,3396.445,347.848Z"/>
    </g>
    <g id="Group_368" data-name="Group 368">
      <path id="Path_337" data-name="Path 337" d="M3372.264,338.1a4.284,4.284,0,0,0-4.577,4.4,4.311,4.311,0,0,0,8.622,0A4.284,4.284,0,0,0,3372.264,338.1Z"/>
    </g>
    <g id="Group_369" data-name="Group 369">
      <path id="Path_338" data-name="Path 338" d="M3322.546,229.585c.154-3.535,2.472-3.5,4.839-3.175a43.842,43.842,0,0,1,7.791,2.01,6.146,6.146,0,0,0,3.671.383c-4.409-2.439-8.567-4.585-13.53-4.137C3322.431,224.926,3321.369,226.631,3322.546,229.585Z"/>
    </g>
    <g id="Group_370" data-name="Group 370">
      <path id="Path_339" data-name="Path 339" d="M3330.75,223.2l.064.082-.042-.072Z" fill="#f3730d"/>
    </g>
    <g id="Group_371" data-name="Group 371">
      <path id="Path_340" data-name="Path 340" d="M3370.67,270.17c1.045.709,1.974,1.673,3.4,1.551C3373.039,270.977,3372.052,270.14,3370.67,270.17Z" fill="#fefefe"/>
    </g>
    <g id="Group_372" data-name="Group 372">
      <path id="Path_341" data-name="Path 341" d="M3402.464,303.564c-1.367-.028-2.079.269-2.083,1.826-.005,2.079-.235,4.157-.373,6.234-.231,3.489-.24,3.435,3.246,2.932,2.285-.329,4.48-1.484,6.9-.869-2.973,1.214-5.776,2.833-8.96,3.331-1.326.208-1.663.831-1.708,2.072a48.023,48.023,0,0,1-.586,5.436c-.1.676.2,1.834-.9,1.833-.9,0-.685-1.071-.79-1.684a52.117,52.117,0,0,1-.711-5.417c-.077-1.206-.484-1.7-1.716-1.669a37.842,37.842,0,0,1-11.347-1.283c-1.273-.356-1.87-.075-2.094,1.357a15.529,15.529,0,0,1-1.3,5.148,11.383,11.383,0,0,1-.821-5.481,2.8,2.8,0,0,0-2.063-3.075,87.288,87.288,0,0,1-8.654-4.205c-3.852-2.1-3.755-2.166-4.423,2.161-.436,2.821-.581,5.721-1.773,8.916a51.446,51.446,0,0,1-1.068-13.234,4.353,4.353,0,0,0-2-4.109c-1.4-1.076-3.239-1.843-3.953-3.737.988-.512,1.461.179,2.025.5,4.058,2.295,4.054,2.3,5.2-2.135a9.911,9.911,0,0,1,.54-2.007c1.2-2.362.352-3.637-1.877-4.85a17.646,17.646,0,0,1-6.322-5.616,43.365,43.365,0,0,1,5.537,2.7c2.179,1.121,4.476,3.632,6.254-.319.665.258.74.667.622.948-1,2.389.633,2.944,2.353,3.5,3.549,1.141,7.1,2.272,10.628,3.484,1.433.493,2.11-.042,2.492-1.359.445-1.534.668-3.154,1.785-4.537a17.124,17.124,0,0,1,.234,4.547c-.175,1.82.242,2.89,2.279,3.24,3.159.543,6.278,1.323,9.4,2.07,1.45.346,2.416.139,3.149-1.37.544-1.12,1.166-2.514,3.063-2.6-.32.576-.531.918-.7,1.277-1.433,2.949-1.162,3.472,2.148,3.8,3.259.321,6.536.193,9.819.331A27.088,27.088,0,0,1,3402.464,303.564Zm-21.652-1.795c.154-.835.132-1.536-.906-1.821a109.1,109.1,0,0,1-13.473-5.119c-.407,2.969-.73,5.708-1.18,8.426a1.849,1.849,0,0,0,1.152,2.27,122.6,122.6,0,0,0,12.7,5.511C3379.683,307.9,3380.247,304.833,3380.812,301.769Zm15.526,10.192a30.371,30.371,0,0,1,.819-6.688c.357-1.59-.169-2.053-1.581-2.134a50.137,50.137,0,0,1-9.479-1.561c-1.145-.291-1.772-.018-1.948,1.276-.351,2.575-.767,5.144-1.266,7.694-.249,1.271.078,1.9,1.371,2.223a47.647,47.647,0,0,0,9.507,1.74C3395.622,315.033,3396.347,314.2,3396.338,311.961Z"/>
    </g>
    <g id="Group_373" data-name="Group 373">
      <path id="Path_342" data-name="Path 342" d="M3389.952,243.073a26.066,26.066,0,0,0-28.169,27.176l7.05,3.407c-.059-.542-.328-1.014-.4-1.576a20.372,20.372,0,0,1-.251-2.133,1.833,1.833,0,0,1,.657-1.7,2.317,2.317,0,0,0,.7-1.8c-.067-.54-.541-1.413-.015-1.85.548.582,1.046-.028,1.57-.207.658-.226.705.19,1.288.528a8.492,8.492,0,0,0,1.646.617,1.518,1.518,0,0,0,1.555-.32,32.511,32.511,0,0,0,2.332-2.354,7.674,7.674,0,0,0,.445-.8c.174-.259.587-.423.719-.645.308-.513-.326-1.261-.353-1.907-.047-1.163,1.109-2.565.682-3.643-.178-.449-.862-.754-.933-1.3-.05-.384.317-.459.094-.884-.13-.248-.361-.28-.569-.423-.767-.528-2.671-1.847-3.6-1.2-.238.165-.2.507-.47.672-.195.121-.633.014-.884.127-.529.241-.825.689-1.423.827-.036-1.023-2.527.332-1.407-1.538a2.2,2.2,0,0,1,2.241-1.118c-.069.072-.146.283-.271.37.735.692.757-.013,1.118-.475a3.094,3.094,0,0,1,1.4-.771c-.06.27-.3.464-.275.765.475.087.748-.519,1.117-.766a1.417,1.417,0,0,1,1.215-.322c1.194.247.284,1.645,1.307,2.1a1.6,1.6,0,0,0,2.184-1.26c.069-.686-.659-.4-.736-.947-.062-.443.552-.689.865-.841-.438-1.26,2.043-.882,2.173-1.986.088-.742-.834-.453-1.163-.153-.236.216-.793,1.152-1.166.374-.4-.843.721-.731,1.084-.823.626-.16.873-.566,1.249-1.008.174-.206.347-.39.515-.569a24.92,24.92,0,0,1,6.029-.429c-.116.295.111.486.473.829.285.271,1.432,1.889,1.887,1.691.294-.128.091-.424.205-.639.1-.189.307-.294.426-.464a6.318,6.318,0,0,0,.609-.978c.638.125,1.27.27,1.892.443-.007.009-.01.018-.018.027-.069.08-.32.266-.373.354-.2.327-.429.518.008.909.765.685,1.324-.347,1.975-.167.7.193.892,1.02,1.677,1.184.7.146,1.736.309,1.662,1.249a4.208,4.208,0,0,1-.791.124,3.073,3.073,0,0,0-.035,1.184c-.953.085-.672-.343-.883-.948-.2-.582-.852-.554-1.153-1.042s-.11-1.118-.935-.879c-.489.141-.634.589-1.256.456a1.19,1.19,0,0,0-.086.776c-.747-.039-.867.32-1.262.819-.231.292-.947,1.169-.024,1.274.485.056.312-.258.665-.455.4-.224.3-.09.723.017.581.147,1.4.1.775.708-.491.481-1.192.532-.246,1.008a7.519,7.519,0,0,0,.771.387c.474.148.311-.094.678-.087,1.029.017.041.8.7,1.313.433.339.939.342,1.352.788.361.391.747.836,1.072,1.255.417.538.426,1.134.751,1.681.357.6.776.576.662,1.361-.068.47-.318,1.337.362,1.553.113-.583-.145-1.1.124-1.6a1.127,1.127,0,0,1,1.277-.548,5.776,5.776,0,0,1,2.449,1.876c.358.593.907,2.5.4,3.119-.775.946-1.486-1.438-2.311-1.462-.476.834.45,1.476.278,2.257-.813.205-1.538.226-1.228,1.366l-.186.308c-.017,1-.242,1.394-1.3,1.107a6.477,6.477,0,0,1-1.928-.9c-.227-.153-.6-.541-.876-.6-.407-.09-.842.178-1.226.19-.44.014-.692-.193-1.094-.231-.449-.042-.767.178-1.21.16-.192.4-.919.745-1.3.947a5.1,5.1,0,0,1-.923.415c-.269.079-.745.058-.968.16-.589.27-.878,1.192-.962,1.764-.068.467.527,1.488.277,1.82-.448.6-1.028-.439-1.5-.482-.316-.029-.294.157-.6.211-.329.059-.527-.085-.882-.07a14.048,14.048,0,0,0-1.737.511c-.774.137-1.059-.039-1.675.485-1.248,1.059-.921,2.111-.068,3.387a8.177,8.177,0,0,1,1.231,3.59c.069.726-.262,1.253.392,1.83.505.446,1.049.49,1.383,1.139.292.565.193,1.288.478,1.836a2.246,2.246,0,0,0,.137.213l6.054,2.925a18.429,18.429,0,0,0,.962-3.475c.108-1.345.142-2.585,1.167-3.459.782-.666,1.823-.9,2.343-1.811a8.1,8.1,0,0,0,.462-1.759c.22-.681.772-.822,1.308-1.164,1.044-.667,1.107-2.2.789-3.269-.217-.732-1.586-2.911-.846-3.644.442-.439,1.111.23,1.55.152a8.093,8.093,0,0,0,1.164-.651c.141-.711.542-.787,1.2-.873a1.727,1.727,0,0,1,1.642-1.164c.924-.035,1.117-.477,1.645-1.12.666-.811.491-1.075.466-2.084a6.8,6.8,0,0,1,.227-2.635c.841.16.261,1.913,1.291,1.7.153-.83-.275-1.3-.472-2.04-.155-.584-.014-1.27-.11-1.852a5.237,5.237,0,0,0-.627-1.767c-.345-.546-.942-.815-1.266-1.393a3.075,3.075,0,0,1-.278-.792c.1.117.21.229.312.348a24.853,24.853,0,0,1-2.807,35.034,25.386,25.386,0,0,1-2.1,1.6l1.294.625a26.108,26.108,0,0,0-13.225-47.177Z" fill="#fff"/>
    </g>
    <g id="Group_374" data-name="Group 374">
      <path id="Path_343" data-name="Path 343" d="M3370.67,270.17c-9.388-5.626-18.915-11.022-28.089-17-.716-.466-1.364-1.036-2.044-1.556-10.583-6.42-20.853-13.267-29.672-22.056a22.153,22.153,0,0,1-2.45-3.015c-2.308-3.3-1.649-5.069,2.242-5.794a27.168,27.168,0,0,1,10.057.19c3.368.636,6.693,1.5,10.037,2.261l.023.01c-.313-.262-.032-.779-.573-1.016-6.064-2.653-12.206-5.019-18.98-4.778-7.458.266-10.1,5.312-6.275,11.66,4.206,6.983,10.255,12.2,16.518,17.127a312.343,312.343,0,0,0,71.26,42.54,84.566,84.566,0,0,0,23.728,6.648,26.762,26.762,0,0,0,8.563-.162c7.555-1.614,10.19-5.1,10.42-12.65a20.125,20.125,0,0,0-.765-5.665l-.1-.021a44.612,44.612,0,0,1-.564,8.456c-.343,1.92-3.531,5.591-5.452,6.068-6.743,1.675-13.1-.058-19.348-2.253-11.686-4.107-22.626-9.823-33.36-15.942C3375.173,272.84,3371.715,270.879,3370.67,270.17Z"/>
    </g>
  </g>
</svg>
